<?xml version="1.0" encoding="UTF-8"?>
<svg version="1.1" xmlns="http://www.w3.org/2000/svg" width="160" height="116">
<path d="M0 0 C9.0609328 8.45790143 14.41409044 18.53282684 15.6640625 30.82421875 C15.25851864 43.7002362 8.60919373 54.58526101 -0.46484375 63.23046875 C-21.85096967 81.38078083 -48.80241511 83.96867348 -75.7109375 82.13671875 C-96.63559086 79.68843638 -116.30023725 69.52526919 -129.40234375 53.00390625 C-135.38418727 44.18291909 -137.0618188 34.02294473 -135.27734375 23.60546875 C-131.79879663 9.95055087 -122.46254711 -0.03209203 -110.71875 -7.16796875 C-76.80467393 -26.28317526 -30.63448217 -25.52873514 0 0 Z " fill="#324999" transform="translate(139.7109375,23.86328125)"/>
<path d="M0 0 C0 3.96 0 7.92 0 12 C2.31 12 4.62 12 7 12 C7 14.97 7 17.94 7 21 C4.69 21 2.38 21 0 21 C0.33 31.23 0.66 41.46 1 52 C2.65 52.33 4.3 52.66 6 53 C6 55.64 6 58.28 6 61 C-3.74553918 61.46082234 -3.74553918 61.46082234 -8.0625 59.875 C-11.34806353 56.69542239 -11.93167556 53.03368265 -12.22705078 48.56494141 C-12.21657715 47.33952637 -12.20610352 46.11411133 -12.1953125 44.8515625 C-12.1924826 44.19417084 -12.18965271 43.53677917 -12.18673706 42.85946655 C-12.17563447 40.78111767 -12.15054986 38.70321634 -12.125 36.625 C-12.11495731 35.20703752 -12.10583373 33.78906821 -12.09765625 32.37109375 C-12.07572805 28.91391963 -12.04126818 25.45700358 -12 22 C-14.97 22.33 -17.94 22.66 -21 23 C-21 25.97 -21 28.94 -21 32 C-26.94 32 -32.88 32 -39 32 C-39 33.98 -39 35.96 -39 38 C-34.38 38 -29.76 38 -25 38 C-25 38.66 -25 39.32 -25 40 C-23.68 40.66 -22.36 41.32 -21 42 C-20.89173711 44.4178712 -20.81260211 46.83087556 -20.75 49.25 C-20.71648437 49.93191406 -20.68296875 50.61382812 -20.6484375 51.31640625 C-20.58756346 54.45141933 -20.83371547 56.68722671 -22.3125 59.46875 C-26.73154582 61.98657843 -31.2695949 61.41432809 -36.25 61.25 C-37.28125 61.23195312 -38.3125 61.21390625 -39.375 61.1953125 C-41.91761064 61.14822712 -44.45833162 61.0824805 -47 61 C-47 58.69 -47 56.38 -47 54 C-40.73 54 -34.46 54 -28 54 C-28 51.36 -28 48.72 -28 46 C-28.95261719 46.05800781 -29.90523438 46.11601563 -30.88671875 46.17578125 C-41.14173716 46.5446668 -41.14173716 46.5446668 -45.25 43.9375 C-47.25652476 40.56940487 -48.17596734 37.82051507 -49 34 C-49.66 34 -50.32 34 -51 34 C-51.33 42.91 -51.66 51.82 -52 61 C-55.63 61 -59.26 61 -63 61 C-63 51.76 -63 42.52 -63 33 C-63.66 33 -64.32 33 -65 33 C-65.33 32.34 -65.66 31.68 -66 31 C-66.33 40.9 -66.66 50.8 -67 61 C-70.63 61 -74.26 61 -78 61 C-78.495 48.13 -78.495 48.13 -79 35 C-81.31 34.67 -83.62 34.34 -86 34 C-86 42.91 -86 51.82 -86 61 C-89.63 61 -93.26 61 -97 61 C-97 48.79 -97 36.58 -97 24 C-88.42 24 -79.84 24 -71 24 C-71 23.67 -71 23.34 -71 23 C-79.25 22.67 -87.5 22.34 -96 22 C-96 18.7 -96 15.4 -96 12 C-87.09 12 -78.18 12 -69 12 C-68.67 14.64 -68.34 17.28 -68 20 C-67.34 20 -66.68 20 -66 20 C-66.103125 18.948125 -66.20625 17.89625 -66.3125 16.8125 C-66 13 -66 13 -64 10.0625 C-60.68179675 7.78123527 -58.88919871 7.18726902 -54.9375 7.44921875 C-51.25314971 8.49658446 -49.87691809 10.83270073 -48 14 C-47.6875 17.375 -47.6875 17.375 -48 20 C-47.01 19.67 -46.02 19.34 -45 19 C-44.67 19.33 -44.34 19.66 -44 20 C-43.67 17.36 -43.34 14.72 -43 12 C-32.44 12 -21.88 12 -11 12 C-11 10.35 -11 8.7 -11 7 C-9.1015625 4.98046875 -9.1015625 4.98046875 -6.625 3.1875 C-5.81289062 2.58292969 -5.00078125 1.97835938 -4.1640625 1.35546875 C-2 0 -2 0 0 0 Z " fill="#434F9C" transform="translate(123,19)"/>
<path d="M0 0 C0 3.96 0 7.92 0 12 C2.31 12 4.62 12 7 12 C7 14.97 7 17.94 7 21 C4.69 21 2.38 21 0 21 C0.33 31.23 0.66 41.46 1 52 C2.65 52.33 4.3 52.66 6 53 C6 55.64 6 58.28 6 61 C-5.73417302 61.55485582 -5.73417302 61.55485582 -10 58 C-11 57 -11 57 -11.11352539 53.58178711 C-11.11336628 52.06363012 -11.10767226 50.54546771 -11.09765625 49.02734375 C-11.0962413 48.22970108 -11.09482635 47.43205841 -11.09336853 46.61024475 C-11.08775316 44.05262565 -11.07519812 41.49509282 -11.0625 38.9375 C-11.05748698 37.20768355 -11.05292373 35.47786574 -11.04882812 33.74804688 C-11.03862791 29.49863761 -11.01905568 25.24941584 -11 21 C-21.23 21 -31.46 21 -42 21 C-42 18.03 -42 15.06 -42 12 C-31.77 12 -21.54 12 -11 12 C-11 10.35 -11 8.7 -11 7 C-9.1015625 4.98046875 -9.1015625 4.98046875 -6.625 3.1875 C-5.81289062 2.58292969 -5.00078125 1.97835938 -4.1640625 1.35546875 C-2 0 -2 0 0 0 Z " fill="#F1F1F7" transform="translate(123,19)"/>
<path d="M0 0 C3.856875 -0.0825 7.71375 -0.165 11.6875 -0.25 C13.4986731 -0.30462402 13.4986731 -0.30462402 15.34643555 -0.36035156 C23.24953071 -0.44242038 23.24953071 -0.44242038 27.20703125 1.890625 C30.38864462 5.63369955 30.11743987 8.10979116 30.09765625 12.9765625 C30.0962413 13.66181 30.09482635 14.3470575 30.09336853 15.05307007 C30.08776675 17.24375761 30.07521406 19.4343433 30.0625 21.625 C30.05748522 23.10937352 30.05292228 24.59374865 30.04882812 26.078125 C30.03779677 29.71878315 30.02053099 33.35938164 30 37 C26.37 37 22.74 37 19 37 C18.505 24.13 18.505 24.13 18 11 C15.69 10.67 13.38 10.34 11 10 C11 18.91 11 27.82 11 37 C7.37 37 3.74 37 0 37 C0 24.79 0 12.58 0 0 Z " fill="#F4F3F9" transform="translate(26,43)"/>
<path d="M0 0 C0.98291016 0.00966797 1.96582031 0.01933594 2.97851562 0.02929688 C4.00267578 0.05443359 5.02683594 0.07957031 6.08203125 0.10546875 C7.63567383 0.12577148 7.63567383 0.12577148 9.22070312 0.14648438 C11.77916824 0.18185486 14.33658905 0.23121331 16.89453125 0.29296875 C16.89453125 2.93296875 16.89453125 5.57296875 16.89453125 8.29296875 C10.95453125 8.29296875 5.01453125 8.29296875 -1.10546875 8.29296875 C-1.10546875 10.27296875 -1.10546875 12.25296875 -1.10546875 14.29296875 C3.51453125 14.29296875 8.13453125 14.29296875 12.89453125 14.29296875 C12.89453125 14.95296875 12.89453125 15.61296875 12.89453125 16.29296875 C14.21453125 16.95296875 15.53453125 17.61296875 16.89453125 18.29296875 C17.00279414 20.71083995 17.08192914 23.12384431 17.14453125 25.54296875 C17.19480469 26.56583984 17.19480469 26.56583984 17.24609375 27.609375 C17.30696779 30.74438808 17.06081578 32.98019546 15.58203125 35.76171875 C11.16298543 38.27954718 6.62493635 37.70729684 1.64453125 37.54296875 C0.61328125 37.52492187 -0.41796875 37.506875 -1.48046875 37.48828125 C-4.02307939 37.44119587 -6.56380037 37.37544925 -9.10546875 37.29296875 C-9.10546875 34.98296875 -9.10546875 32.67296875 -9.10546875 30.29296875 C-2.83546875 30.29296875 3.43453125 30.29296875 9.89453125 30.29296875 C9.89453125 27.65296875 9.89453125 25.01296875 9.89453125 22.29296875 C8.9303125 22.339375 7.96609375 22.38578125 6.97265625 22.43359375 C5.709375 22.4696875 4.44609375 22.50578125 3.14453125 22.54296875 C1.26507813 22.61257812 1.26507813 22.61257812 -0.65234375 22.68359375 C-4.10546875 22.29296875 -4.10546875 22.29296875 -6.53125 20.75 C-8.72717635 17.32261123 -8.60222296 14.771606 -8.54296875 10.73046875 C-8.55005859 10.05822266 -8.55714844 9.38597656 -8.56445312 8.69335938 C-8.50192289 3.84967113 -8.50192289 3.84967113 -6.89746094 1.59667969 C-4.49006931 -0.15474692 -2.95786252 -0.05129241 0 0 Z " fill="#EEEDF5" transform="translate(85.10546875,42.70703125)"/>
<path d="M0 0 C3.3 0 6.6 0 10 0 C10 9.24 10 18.48 10 28 C6.7 28 3.4 28 0 28 C0 18.76 0 9.52 0 0 Z " fill="#EBEBF4" transform="translate(61,52)"/>
<path d="M0 0 C8.91 0 17.82 0 27 0 C27 2.97 27 5.94 27 9 C18.09 9 9.18 9 0 9 C0 6.03 0 3.06 0 0 Z " fill="#EEEEF6" transform="translate(27,31)"/>
<path d="M0 0 C2.5 1.4375 2.5 1.4375 4 4 C4.67152959 7.15736719 4.74513733 9.85137461 4 13 C1.82159803 16.14095168 -0.85812846 17.69364422 -4.5625 18.6875 C-7.58256393 17.8356871 -9.17695357 16.34873606 -11.046875 13.8515625 C-12.84387837 10.36066251 -12.56285413 7.87743954 -12 4 C-9.15467665 -0.74220558 -5.08013991 -0.98896166 0 0 Z " fill="#EDECF5" transform="translate(70,27)"/>
<path d="M0 0 C1.67542976 0.28604898 3.34385343 0.61781233 5 1 C5.625 3.375 5.625 3.375 6 6 C5.34 6.66 4.68 7.32 4 8 C2.68 8 1.36 8 0 8 C-0.38063221 5.6739143 -0.71269945 3.33944736 -1 1 C-0.67 0.67 -0.34 0.34 0 0 Z " fill="#454F9C" transform="translate(64,32)"/>
<path d="M0 0 C9.24 0 18.48 0 28 0 C27.67 0.99 27.34 1.98 27 3 C26.23429687 2.84660156 25.46859375 2.69320312 24.6796875 2.53515625 C19.83441732 1.8304832 15.01351261 1.63953203 10.125 1.4375 C9.15046875 1.39431641 8.1759375 1.35113281 7.171875 1.30664062 C4.78137198 1.20117726 2.39077556 1.09905825 0 1 C0 0.67 0 0.34 0 0 Z " fill="#2E368C" transform="translate(26,41)"/>
<path d="M0 0 C1.53445094 3.06890187 0.54984289 5.70094266 0 9 C-0.99 9.33 -1.98 9.66 -3 10 C-3.36923077 3.47692308 -3.36923077 3.47692308 -1.5 1.0625 C-1.005 0.711875 -0.51 0.36125 0 0 Z " fill="#2D3A8F" transform="translate(57,30)"/>
</svg>
