<?xml version="1.0" encoding="UTF-8"?>
<svg version="1.1" xmlns="http://www.w3.org/2000/svg" width="1300" height="210">
<path d="M0 0 C9.74981882 8.17127672 16.81368643 17.06605928 20.875 29.25 C21.76582022 39.4053505 22.28881042 50.2938198 16.875 59.25 C16.41609375 60.0234375 15.9571875 60.796875 15.484375 61.59375 C14.03161401 63.88758314 12.49463198 66.0714522 10.875 68.25 C10.21564453 69.15878906 10.21564453 69.15878906 9.54296875 70.0859375 C-3.81334769 87.09888236 -29.32406732 95.88595971 -50.05078125 98.74609375 C-79.56858814 102.09542265 -111.59652145 97.08814396 -135.43652344 78.2734375 C-144.33841487 70.90067374 -152.75869877 60.8952051 -155.125 49.25 C-156.42787813 35.06676975 -155.19057073 23.69183332 -146.4375 12.0625 C-112.02422912 -27.99018958 -41.24797278 -31.50535345 0 0 Z " fill="#2F4898" transform="translate(175.125,49.75)"/>
<path d="M0 0 C20.91096567 -2.20753814 20.91096567 -2.20753814 27.21679688 1.19677734 C30.84436149 4.28966021 33.3715991 8.10759965 35.83837891 12.15332031 C37.54774063 14.87076715 39.60596943 17.24903465 41.6875 19.6875 C43.12646516 21.45714297 44.56398989 23.22795827 46 25 C51.62887218 31.92706252 57.3313052 38.78047747 63.12890625 45.56640625 C66.84852099 49.96605376 70.41545925 54.49027159 74 59 C74.02497151 54.07446652 74.04298678 49.148971 74.05493164 44.22338867 C74.05991846 42.55248369 74.06671031 40.88158298 74.07543945 39.21069336 C75.17153697 23.01480143 75.17153697 23.01480143 71 8 C68.60540353 6.87108243 68.60540353 6.87108243 65.875 6.25 C64.96492188 6.00765625 64.05484375 5.7653125 63.1171875 5.515625 C62.41851562 5.34546875 61.71984375 5.1753125 61 5 C61 3.35 61 1.7 61 0 C72.22 0 83.44 0 95 0 C95 1.65 95 3.3 95 5 C94.37351562 5.14695312 93.74703125 5.29390625 93.1015625 5.4453125 C92.28429687 5.66960938 91.46703125 5.89390625 90.625 6.125 C89.81289063 6.33382812 89.00078125 6.54265625 88.1640625 6.7578125 C85.75284162 7.85139024 85.75284162 7.85139024 84.90161133 10.60546875 C83.92471661 14.283439 83.56606022 17.77433733 83.41015625 21.5546875 C83.37334244 22.31748016 83.33652863 23.08027283 83.29859924 23.86618042 C82.7512189 36.27674024 82.63089374 48.70517525 82.4375 61.125 C82.39419914 63.74089072 82.35058166 66.35677621 82.30664062 68.97265625 C82.20078104 75.31504867 82.09881353 81.65749409 82 88 C74.34130859 88.3125 74.34130859 88.3125 71.26953125 85.5 C70.42552401 84.35128727 69.60783427 83.18293388 68.8125 82 C67.87320068 80.70680037 66.9317041 79.41519449 65.98828125 78.125 C65.50311035 77.44695312 65.01793945 76.76890625 64.51806641 76.0703125 C61.97775707 72.60588292 59.23297061 69.31298519 56.5 66 C51.99516953 60.48652668 47.56245064 54.92333954 43.18164062 49.31103516 C38.9670236 43.92586209 34.6550051 38.62172735 30.32617188 33.328125 C29.80603516 32.69132812 29.28589844 32.05453125 28.75 31.3984375 C28.29109375 30.83817871 27.8321875 30.27791992 27.359375 29.70068359 C25.86440355 27.83035832 24.42788644 25.92187215 23 24 C22.97506543 29.4951953 22.95703013 34.99035682 22.94506836 40.4855957 C22.9400755 42.3505104 22.93327888 44.21542126 22.92456055 46.08032227 C21.72323202 63.13700142 21.72323202 63.13700142 26 79 C28.1402048 79.87579911 28.1402048 79.87579911 30.5625 80.1875 C34.93629344 80.93629344 34.93629344 80.93629344 36 82 C36 83.65 36 85.3 36 87 C24.78 87 13.56 87 2 87 C2 85.35 2 83.7 2 82 C2.62648437 81.78085938 3.25296875 81.56171875 3.8984375 81.3359375 C4.71570313 81.01882812 5.53296875 80.70171875 6.375 80.375 C7.18710938 80.07335937 7.99921875 79.77171875 8.8359375 79.4609375 C11.88636053 77.40162665 12.06032512 75.53057624 13 72 C13.28952311 69.3909961 13.49930431 66.86485696 13.61328125 64.25 C13.65060867 63.51265625 13.6879361 62.7753125 13.72639465 62.015625 C14.08080592 54.43243486 14.18612799 46.84896296 14.18530273 39.25830078 C14.18752646 36.97280201 14.20590035 34.68776032 14.22460938 32.40234375 C14.81736093 19.64233658 14.81736093 19.64233658 9.8125 8.5625 C6.53457724 6.7414318 3.64368432 5.85733749 0 5 C0 3.35 0 1.7 0 0 Z " fill="#2D4798" transform="translate(238,41)"/>
<path d="M0 0 C343.86 0 687.72 0 1042 0 C1042 0.99 1042 1.98 1042 3 C698.14 3 354.28 3 0 3 C0 2.01 0 1.02 0 0 Z " fill="#000000" transform="translate(246,144)"/>
<path d="M0 0 C6.36786075 -0.10208207 12.73550763 -0.17174934 19.10400391 -0.21972656 C21.26684454 -0.2397439 23.42963173 -0.2669663 25.59228516 -0.30175781 C28.71530406 -0.35071247 31.8376026 -0.37306817 34.9609375 -0.390625 C36.39280899 -0.42159271 36.39280899 -0.42159271 37.85360718 -0.45318604 C44.93095145 -0.4555097 52.18453301 0.65462564 57.6914978 5.48309326 C62.4839838 11.0040798 62.46428937 16.38348657 62.40625 23.40625 C61.79864844 28.78118684 59.82081819 32.22891046 56 36 C53.7021205 37.683277 51.60702759 38.80076731 49 40 C52.25213494 47.24526266 56.04461834 53.87820914 60.5 60.4375 C60.95028564 61.11103516 61.40057129 61.78457031 61.86450195 62.47851562 C65.36472729 67.53166227 68.98914096 71.99638032 75 74 C74.67 75.98 74.34 77.96 74 80 C56.80723 79.46853879 56.80723 79.46853879 50.28125 73.40234375 C47.12558705 69.6587153 44.75063546 65.59036185 42.4375 61.29296875 C41.9739209 60.44613525 41.5103418 59.59930176 41.03271484 58.72680664 C40.10957054 57.0206067 39.21289225 55.29976171 38.34619141 53.56420898 C37.91483887 52.76184814 37.48348633 51.9594873 37.0390625 51.1328125 C36.66990723 50.40980957 36.30075195 49.68680664 35.92041016 48.94189453 C33.32002784 46.01970608 33.32002784 46.01970608 25 44 C25.33 52.91 25.66 61.82 26 71 C30.455 71.99 30.455 71.99 35 73 C35 74.65 35 76.3 35 78 C23.45 78 11.9 78 0 78 C0 76.35 0 74.7 0 73 C2.97 72.01 5.94 71.02 9 70 C10.25205324 64.16999048 10.16177458 58.40103054 10.16796875 52.46875 C10.17129715 51.35947144 10.17462555 50.25019287 10.17805481 49.1072998 C10.18310617 46.76733819 10.18546369 44.42736941 10.18530273 42.08740234 C10.1874923 38.51257477 10.20567572 34.93805441 10.22460938 31.36328125 C10.22754306 29.08593855 10.22952802 26.80859439 10.23046875 24.53125 C10.23765427 23.46547729 10.24483978 22.39970459 10.25224304 21.30163574 C10.23170528 13.95490772 10.23170528 13.95490772 8 7 C6.09070686 5.86356773 6.09070686 5.86356773 3.875 5.625 C2.59625 5.41875 1.3175 5.2125 0 5 C0 3.35 0 1.7 0 0 Z M25 7 C25 17.56 25 28.12 25 39 C36.49671414 38.33772304 36.49671414 38.33772304 44.875 31.875 C47.09614552 26.19873923 47.80988086 20.46433748 45.8125 14.625 C43.81095454 10.1530786 41.63350057 7.69510663 37.0625 5.75 C31.95160005 4.49835103 29.78848536 4.60575732 25 7 Z " fill="#000000" transform="translate(957,48)"/>
<path d="M0 0 C12.87 0 25.74 0 39 0 C39 1.65 39 3.3 39 5 C38.04287109 5.30744141 38.04287109 5.30744141 37.06640625 5.62109375 C36.24011719 5.89050781 35.41382813 6.15992188 34.5625 6.4375 C33.73878906 6.70433594 32.91507813 6.97117187 32.06640625 7.24609375 C30.03780412 7.82155494 30.03780412 7.82155494 29 9 C27.73399052 16.1022234 27.81386329 23.25833622 27.81469727 30.45141602 C27.8125301 32.53358015 27.79437906 34.61519613 27.77539062 36.69726562 C27.48595873 57.26263908 27.48595873 57.26263908 36.625 74.875 C42.38191032 78.49972132 48.10914245 79.63082698 54.8125 78.3125 C59.65743144 76.95626039 62.86247557 75.37172063 66.125 71.4375 C74.88762333 55.37269056 73.54229525 31.70013106 71 14 C69.82103761 10.18189244 69.41839698 9.27893132 66 7 C63.67085177 6.63858045 61.33746522 6.30300475 59 6 C58.505 5.505 58.505 5.505 58 5 C58 3.35 58 1.7 58 0 C69.55 0 81.1 0 93 0 C93 1.65 93 3.3 93 5 C92.37351562 5.17015625 91.74703125 5.3403125 91.1015625 5.515625 C90.28429687 5.75796875 89.46703125 6.0003125 88.625 6.25 C87.81289063 6.48203125 87.00078125 6.7140625 86.1640625 6.953125 C83.39708955 8.29166065 83.09260158 9.15042889 82 12 C81.54756021 15.16905008 81.54756021 15.16905008 81.39453125 18.7109375 C81.35689163 19.36645599 81.31925201 20.02197449 81.2804718 20.69735718 C81.0222416 25.53853795 80.90379603 30.37958293 80.82421875 35.2265625 C80.81214386 35.91562683 80.80006897 36.60469116 80.78762817 37.31463623 C80.71587997 41.52920149 80.71587997 41.52920149 80.67407227 45.74414062 C80.58538353 57.56566625 79.68019405 69.83164321 71.765625 79.28515625 C63.28231721 87.5244751 54.29490297 89.41002561 42.85424805 89.36572266 C34.01297377 89.16878817 26.03466455 87.07273658 19.49609375 80.81640625 C11.4311893 71.02481207 10.71791174 58.71554132 10.69140625 46.53125 C10.66628643 44.39322597 10.64088794 42.25520519 10.61523438 40.1171875 C10.58633083 36.78809193 10.56227159 33.45905237 10.54370117 30.12988281 C10.52214504 26.88840927 10.48276574 23.64752226 10.44140625 20.40625 C10.44123253 18.90632507 10.44123253 18.90632507 10.4410553 17.37609863 C10.42771652 16.45083374 10.41437775 15.52556885 10.40063477 14.57226562 C10.39556412 13.75939087 10.39049347 12.94651611 10.38526917 12.10900879 C9.90034356 9.4544689 9.13562973 8.61346886 7 7 C4.69011685 6.25613932 2.35684056 5.57809297 0 5 C0 3.35 0 1.7 0 0 Z " fill="#000000" transform="translate(569,39)"/>
<path d="M0 0 C19.21899772 -1.62512664 19.21899772 -1.62512664 25.1484375 1.83984375 C27.41652359 4.43135728 29.19964771 7.06653125 31 10 C32.41346567 11.76946915 33.85182036 13.51930036 35.3125 15.25 C36.05371094 16.16523437 36.79492188 17.08046875 37.55859375 18.0234375 C40.28530365 21.34784221 43.07075889 24.61601709 45.875 27.875 C49.93229938 32.59108266 53.97937821 37.31507875 58 42.0625 C58.44456543 42.58634277 58.88913086 43.11018555 59.34716797 43.64990234 C61.95027947 46.7264877 64.49661775 49.84179785 67 53 C67.1449202 35.86843332 67.1449202 35.86843332 66.5625 18.75 C66.52326416 18.0192627 66.48402832 17.28852539 66.44360352 16.53564453 C66.23641516 13.19438431 65.81663171 10.26652683 65 7 C60.05 6.01 60.05 6.01 55 5 C55 3.35 55 1.7 55 0 C64.9 0 74.8 0 85 0 C85 1.65 85 3.3 85 5 C83.88625 5.226875 82.7725 5.45375 81.625 5.6875 C77.92206492 6.57703005 77.92206492 6.57703005 76.81030273 9.16601562 C72.82425632 23.10696975 74.68286804 40.12844321 74.4375 54.5 C74.39420248 56.88412046 74.35058507 59.26823513 74.30664062 61.65234375 C74.20074257 67.43483436 74.09878009 73.21738364 74 79 C67.56961183 79.40757327 67.56961183 79.40757327 65.06298828 77.61401367 C64.57040527 76.97181885 64.07782227 76.32962402 63.5703125 75.66796875 C62.72569458 74.6018335 62.72569458 74.6018335 61.86401367 73.51416016 C61.29013916 72.7463623 60.71626465 71.97856445 60.125 71.1875 C59.51567627 70.40938965 58.90635254 69.6312793 58.27856445 68.82958984 C57.06018873 67.27312573 55.84979256 65.71037824 54.64794922 64.14111328 C52.55202748 61.41796755 50.37938672 58.7714432 48.1875 56.125 C46.79164794 54.41668197 45.39581396 52.70834916 44 51 C43.31035156 50.15824219 42.62070312 49.31648438 41.91015625 48.44921875 C39.60438366 45.63475854 37.30158942 42.81788062 35 40 C34.46197754 39.34177246 33.92395508 38.68354492 33.36962891 38.00537109 C31.599106 35.83811717 29.83061007 33.66922265 28.0625 31.5 C27.4943457 30.80495361 26.92619141 30.10990723 26.34082031 29.39379883 C25.80682617 28.73790771 25.27283203 28.0820166 24.72265625 27.40625 C24.24578369 26.82166016 23.76891113 26.23707031 23.27758789 25.63476562 C22.11242705 24.14385849 21.04960122 22.57440183 20 21 C19.81384105 40.25732611 19.81384105 40.25732611 20.4375 59.5 C20.47673584 60.21526855 20.51597168 60.93053711 20.55639648 61.66748047 C20.76572056 64.94032873 21.19947623 67.79790493 22 71 C25.3 71.66 28.6 72.32 32 73 C32 74.65 32 76.3 32 78 C21.77 78 11.54 78 1 78 C1 76.35 1 74.7 1 73 C1.55429687 72.84144531 2.10859375 72.68289062 2.6796875 72.51953125 C3.76636719 72.16955078 3.76636719 72.16955078 4.875 71.8125 C5.59429688 71.59207031 6.31359375 71.37164062 7.0546875 71.14453125 C9.80477787 69.52650619 10.14741986 68.03944821 11 65 C12.50709624 54.45032632 12.10117193 43.57503046 12.125 32.9375 C12.12767883 32.25383362 12.13035767 31.57016724 12.13311768 30.86578369 C12.13901373 28.87797912 12.13602622 26.89015447 12.1328125 24.90234375 C12.13168457 23.74210693 12.13055664 22.58187012 12.12939453 21.38647461 C12.00468564 14.65946456 12.00468564 14.65946456 9.375 8.6875 C6.39292168 6.56865488 3.54217172 5.81742424 0 5 C0 3.35 0 1.7 0 0 Z " fill="#000000" transform="translate(666,48)"/>
<path d="M0 0 C0.79470703 -0.01160156 1.58941406 -0.02320313 2.40820312 -0.03515625 C3.20033203 -0.03128906 3.99246094 -0.02742188 4.80859375 -0.0234375 C5.85551392 -0.01836182 5.85551392 -0.01836182 6.92358398 -0.01318359 C10.92124825 0.57487138 14.72917045 2.09722348 18.5625 3.375 C19.5525 9.975 20.5425 16.575 21.5625 23.375 C19.2525 23.705 16.9425 24.035 14.5625 24.375 C14.21638672 23.37919922 14.21638672 23.37919922 13.86328125 22.36328125 C11.54686241 16.09155435 9.28522656 11.98090859 3.6875 8.0625 C-0.69592921 6.64433172 -4.38148367 7.00945589 -8.6875 8.5 C-12.15224363 10.8623252 -13.17692346 12.3708157 -14.4375 16.375 C-14.62431228 20.78844014 -14.24276076 24.09933939 -11.859375 27.875 C-8.81374649 31.01887459 -5.59801938 32.79402065 -1.75 34.8125 C-0.30866724 35.59931607 1.13144697 36.38836858 2.5703125 37.1796875 C3.60526855 37.74574707 3.60526855 37.74574707 4.66113281 38.32324219 C12.6584232 42.74701299 21.19816428 48.43502808 24.5625 57.375 C25.35563458 65.38012577 25.87409587 73.83303447 20.5625 80.375 C14.24580552 87.41942426 7.30163327 91.19945041 -2.171875 91.71875 C-21.27381593 92.27819857 -21.27381593 92.27819857 -27.4375 88.375 C-29.30101273 85.63796568 -29.81255835 84.47797117 -30.4375 81.375 C-30.63730469 80.40175781 -30.83710938 79.42851563 -31.04296875 78.42578125 C-31.90948787 73.69772728 -32.55213223 69.18955386 -32.4375 64.375 C-28.9725 63.88 -28.9725 63.88 -25.4375 63.375 C-25.12619141 64.31859375 -25.12619141 64.31859375 -24.80859375 65.28125 C-22.02599747 73.01197774 -18.3560742 78.70703459 -11.5 83.375 C-6.31812433 85.06704103 -2.28334744 85.00189158 2.875 83.25 C6.23944825 80.90271052 7.24490434 79.25458723 8.5625 75.375 C9.25499584 71.09178501 8.95189525 68.18624011 7.0625 64.25 C2.10054838 58.54375564 -3.87398504 55.08099863 -10.4375 51.4375 C-17.84181773 47.29586917 -25.28431714 42.88876252 -28.8125 34.80859375 C-30.52233809 28.15091171 -30.72468052 20.3206411 -27.9375 13.9375 C-21.52520679 3.4159203 -11.78672266 -0.17123568 0 0 Z " fill="#2D4798" transform="translate(424.4375,38.625)"/>
<path d="M0 0 C1.65 0 3.3 0 5 0 C5.66 0.66 6.32 1.32 7 2 C10.08725382 3.05786029 12.99426531 3.13178027 16.23999023 3.14526367 C17.28464951 3.15164352 18.32930878 3.15802338 19.40562439 3.16459656 C20.52860428 3.16570938 21.65158417 3.1668222 22.80859375 3.16796875 C24.54690208 3.17296135 24.54690208 3.17296135 26.32032776 3.17805481 C28.77059533 3.18311626 31.22086979 3.18546338 33.67114258 3.18530273 C37.419549 3.18748953 41.16766126 3.20565467 44.91601562 3.22460938 C47.29687399 3.22754338 49.67773376 3.22952813 52.05859375 3.23046875 C53.17954941 3.23765427 54.30050507 3.24483978 55.45542908 3.25224304 C56.50324051 3.24916641 57.55105194 3.24608978 58.63061523 3.24291992 C59.54898666 3.24434494 60.46735809 3.24576996 61.41355896 3.24723816 C64.53823348 2.94855021 67.71071899 2.28928101 70 0 C71.66617115 -0.04063832 73.33388095 -0.042721 75 0 C75.85695967 5.88400655 76.12539234 11.55909292 76.0625 17.5 C76.05798828 18.32242188 76.05347656 19.14484375 76.04882812 19.9921875 C76.03718489 21.99482396 76.01925556 23.99742227 76 26 C74.02 26 72.04 26 70 26 C69.74605469 25.24074219 69.49210938 24.48148438 69.23046875 23.69921875 C68.71419922 22.20841797 68.71419922 22.20841797 68.1875 20.6875 C67.85105469 19.70136719 67.51460937 18.71523438 67.16796875 17.69921875 C66.03690621 15.08529162 65.22282358 13.73010702 63 12 C59.43913342 10.81304447 56.02668976 10.64904582 52.3125 10.4375 C51.61060547 10.39431641 50.90871094 10.35113281 50.18554688 10.30664062 C48.45724794 10.2008264 46.7286489 10.09993419 45 10 C45.08463847 18.33694155 45.17961139 26.67367586 45.28752708 35.01034546 C45.33732542 38.88202378 45.38365589 42.75367697 45.421875 46.62548828 C45.45893709 50.36684538 45.5053516 54.10798344 45.55806351 57.84915161 C45.57649695 59.27153657 45.59164502 60.69396828 45.60334396 62.11642456 C45.6651335 69.37407634 45.79028573 76.05296846 48 83 C48.71027344 83.13277344 49.42054688 83.26554687 50.15234375 83.40234375 C51.07144531 83.57894531 51.99054688 83.75554687 52.9375 83.9375 C54.31228516 84.19853516 54.31228516 84.19853516 55.71484375 84.46484375 C58 85 58 85 59 86 C59 87.65 59 89.3 59 91 C44.81 91 30.62 91 16 91 C16 86 16 86 17 85 C20.63 84.34 24.26 83.68 28 83 C28.33 58.91 28.66 34.82 29 10 C18.3683681 9.98816242 18.3683681 9.98816242 9.375 14.5625 C7.33546898 18.17803227 6.19397711 22.03701216 5 26 C2.69 26 0.38 26 -2 26 C-1.34 17.42 -0.68 8.84 0 0 Z " fill="#2D4798" transform="translate(458,37)"/>
<path d="M0 0 C19.14 0 38.28 0 58 0 C58.495 9.405 58.495 9.405 59 19 C56.03 19.495 56.03 19.495 53 20 C52.32880451 18.5437455 51.66318193 17.08492133 51 15.625 C50.62875 14.81289063 50.2575 14.00078125 49.875 13.1640625 C49 11 49 11 49 9 C37.38676054 6.02942167 37.38676054 6.02942167 26 8 C25.67 17.24 25.34 26.48 25 36 C27.8875 35.835 30.775 35.67 33.75 35.5 C34.65331055 35.46841797 35.55662109 35.43683594 36.48730469 35.40429688 C38.88047679 35.20103237 40.7783245 34.93340481 43 34 C44.9392408 31.52251043 46.03449682 28.98054091 47 26 C48.65 26 50.3 26 52 26 C52 34.58 52 43.16 52 52 C50.35 52 48.7 52 47 52 C46.81856445 51.43990234 46.63712891 50.87980469 46.45019531 50.30273438 C45.50671752 47.91287237 44.58704888 46.02754453 43 44 C39.9615173 42.72342547 37.01920219 42.61237883 33.75 42.5 C32.48929688 42.41105469 32.48929688 42.41105469 31.203125 42.3203125 C29.13745765 42.17947154 27.06871223 42.08513219 25 42 C25.10991641 46.08388613 25.24053855 50.16685411 25.375 54.25 C25.4059375 55.40886719 25.436875 56.56773438 25.46875 57.76171875 C25.50742187 58.87675781 25.54609375 59.99179688 25.5859375 61.140625 C25.63306885 62.68024902 25.63306885 62.68024902 25.68115234 64.25097656 C26.00003151 67.00027167 26.50284815 68.68942447 28 71 C31.36313909 72.68156955 35.11766587 72.22674377 38.8125 72.25 C39.62009766 72.270625 40.42769531 72.29125 41.25976562 72.3125 C45.97391045 72.34338711 49.27805937 72.21068505 53 69 C54.86642222 66.31903846 54.86642222 66.31903846 56.3125 63.3125 C56.82425781 62.31863281 57.33601562 61.32476562 57.86328125 60.30078125 C58.23839844 59.54152344 58.61351562 58.78226563 59 58 C61.97 58.495 61.97 58.495 65 59 C64.71422932 61.02167552 64.42108213 63.04230888 64.125 65.0625 C63.96257812 66.18785156 63.80015625 67.31320313 63.6328125 68.47265625 C62.99407859 72.0330064 61.99371892 75.52198376 61 79 C40.54 79 20.08 79 -1 79 C-1 77.35 -1 75.7 -1 74 C3.455 73.01 3.455 73.01 8 72 C10.17700823 65.82568469 10.29107398 60.13487403 10.265625 53.625 C10.26753845 52.5417041 10.2694519 51.4584082 10.27142334 50.34228516 C10.27277995 48.05956794 10.26912026 45.77684287 10.26074219 43.49414062 C10.25003548 40.0115415 10.26065557 36.52945819 10.2734375 33.046875 C10.27211581 30.82291553 10.26955323 28.59895639 10.265625 26.375 C10.26967346 25.33939941 10.27372192 24.30379883 10.27789307 23.23681641 C10.24261007 17.76378081 9.82367143 13.17220021 8 8 C5.36 7.34 2.72 6.68 0 6 C0 4.02 0 2.04 0 0 Z " fill="#000000" transform="translate(887,47)"/>
<path d="M0 0 C11.22 0 22.44 0 34 0 C34 1.98 34 3.96 34 6 C31.69 6.66 29.38 7.32 27 8 C28.28530714 14.40934495 30.0604452 20.29493227 32.44140625 26.375 C32.93301491 27.65080933 32.93301491 27.65080933 33.43455505 28.95239258 C34.1215717 30.7316344 34.81163694 32.50970187 35.50463867 34.28662109 C36.56944376 37.01781052 37.62432034 39.75268064 38.67773438 42.48828125 C39.3483878 44.22157503 40.0195917 45.95465594 40.69140625 47.6875 C41.16641319 48.91702393 41.16641319 48.91702393 41.65101624 50.17138672 C42.86975943 53.85830971 42.86975943 53.85830971 45 57 C46.47688251 53.1270103 47.95178472 49.25327336 49.42504883 45.37890625 C49.9238868 44.06783932 50.42321607 42.75695919 50.9230957 41.44628906 C52.38580311 37.61054879 53.83753029 33.77093116 55.27630615 29.92614746 C55.76171943 28.63419568 56.2507391 27.34359356 56.7432251 26.05432129 C57.45924199 24.17776902 58.16146434 22.29597154 58.86328125 20.4140625 C59.27489502 19.32303223 59.68650879 18.23200195 60.1105957 17.10791016 C61.02438967 13.91477341 61.16968188 11.30243755 61 8 C58.69 7.34 56.38 6.68 54 6 C54 4.02 54 2.04 54 0 C63.57 0 73.14 0 83 0 C83 1.98 83 3.96 83 6 C82.1646875 6.04640625 82.1646875 6.04640625 81.3125 6.09375 C78.3816622 6.60862691 76.53417883 7.40582694 74 9 C72.56513819 11.14541638 71.48708645 13.05959569 70.40625 15.375 C70.07508179 16.06098267 69.74391357 16.74696533 69.40270996 17.45373535 C64.15603651 28.59852087 59.76822001 40.14046955 55.25231934 51.59454346 C53.98333598 54.80859436 52.70611999 58.0193707 51.4296875 61.23046875 C48.94571053 67.48405999 46.46967158 73.74074644 44 80 C41.69 80 39.38 80 37 80 C33.96598216 73.37787837 31.26304552 66.66256047 28.6640625 59.859375 C27.83864923 57.71480235 27.0131249 55.57027244 26.1875 53.42578125 C24.90689462 50.09160569 23.62764963 46.7569205 22.35058594 43.42138672 C16.64808313 23.67529377 16.64808313 23.67529377 5.87207031 7.56811523 C3.44765907 6.53807604 3.44765907 6.53807604 0 6 C0 4.02 0 2.04 0 0 Z " fill="#000000" transform="translate(799,47)"/>
<path d="M0 0 C0.33774332 2.22850277 0.6700187 4.45783467 1 6.6875 C1.185625 7.92886719 1.37125 9.17023437 1.5625 10.44921875 C1.92100411 13.35886371 2.08942256 16.07700022 2 19 C-0.97 19.495 -0.97 19.495 -4 20 C-4.21914062 19.33613281 -4.43828125 18.67226562 -4.6640625 17.98828125 C-6.81717125 11.99283615 -8.52601973 8.39386777 -14 5 C-17.9561919 3.65321127 -19.67895668 3.89661317 -23.6875 5.1875 C-27.70647841 7.31905575 -27.70647841 7.31905575 -30 11 C-30.52525702 16.51519869 -30.43039452 19.46647031 -27 24 C-24.83263744 25.45441435 -22.79701218 26.67755233 -20.5 27.875 C-19.2398454 28.56581456 -17.98074281 29.25855133 -16.72265625 29.953125 C-16.09633301 30.29537109 -15.47000977 30.63761719 -14.82470703 30.99023438 C1.36372749 39.94867232 1.36372749 39.94867232 5 49 C5.83158494 56.85170898 6.07248887 64.58083266 1 71 C-3.71064251 76.21152096 -9.32408937 79.43821793 -16.37548828 80.28540039 C-18.90315913 80.4013417 -21.40756983 80.40968297 -23.9375 80.375 C-24.77990234 80.38660156 -25.62230469 80.39820313 -26.49023438 80.41015625 C-32.25384101 80.38353451 -37.89235959 79.88080171 -43 77 C-44.5 74.3984375 -44.5 74.3984375 -45 71.375 C-45.19207031 70.31539063 -45.38414063 69.25578125 -45.58203125 68.1640625 C-45.71996094 67.11992188 -45.85789062 66.07578125 -46 65 C-46.12761719 64.07960938 -46.25523438 63.15921875 -46.38671875 62.2109375 C-46.63910936 60.14592339 -46.82723378 58.07319466 -47 56 C-45.02 55.34 -43.04 54.68 -41 54 C-35 66 -35 66 -33.90625 68.3203125 C-32.12286214 71.62572966 -28.58634865 72.2112803 -25.1875 73.25 C-20.94742719 74.23698157 -18.03548191 73.78492469 -14 72 C-11.28497951 69.77229088 -10.22347697 68.14653403 -9.55078125 64.6953125 C-9.2280153 59.97575707 -9.51014899 57.27916849 -12.47265625 53.50390625 C-16.10362001 49.53482783 -20.31236069 47.23238229 -25.0625 44.8125 C-40.76325636 36.6224728 -40.76325636 36.6224728 -44 28 C-44.93776169 21.06379717 -45.12047992 13.83029661 -41.3984375 7.6796875 C-35.95655765 1.14335137 -28.93376319 -2.03106369 -20.5546875 -2.9765625 C-13.81538317 -3.03839098 -6.38186066 -2.12728689 0 0 Z " fill="#000000" transform="translate(1083,48)"/>
<path d="M0 0 C10.89 0 21.78 0 33 0 C33 1.98 33 3.96 33 6 C30.69 6.33 28.38 6.66 26 7 C28.21440456 12.39716609 30.7858042 17.49739862 33.5625 22.625 C38.33416401 31.44371345 38.33416401 31.44371345 40 36 C40.66 36 41.32 36 42 36 C42.2475 35.17371094 42.495 34.34742188 42.75 33.49609375 C44.44039425 28.76827233 46.74713069 24.44794501 49.078125 20.00976562 C51.27833568 15.72838551 52.83022703 11.67299933 54 7 C51.36 6.67 48.72 6.34 46 6 C46 4.02 46 2.04 46 0 C55.57 0 65.14 0 75 0 C75 1.98 75 3.96 75 6 C73.081875 6.2784375 73.081875 6.2784375 71.125 6.5625 C63.387246 9.17807882 59.86929324 17.31917469 56 24 C55.53819336 24.78648926 55.07638672 25.57297852 54.60058594 26.38330078 C53.19621755 28.78810067 51.81116218 31.20253991 50.4375 33.625 C50.00767822 34.38240479 49.57785645 35.13980957 49.13500977 35.92016602 C45.40023949 42.70134309 44.81878184 48.22371999 44.8125 55.875 C44.79413086 57.04095703 44.79413086 57.04095703 44.77539062 58.23046875 C44.76284474 63.20700237 45.40828761 67.281485 47 72 C50.3 72.66 53.6 73.32 57 74 C57 75.65 57 77.3 57 79 C44.13 79 31.26 79 18 79 C18 77.35 18 75.7 18 74 C18.62648438 73.90203125 19.25296875 73.8040625 19.8984375 73.703125 C20.71570312 73.55359375 21.53296875 73.4040625 22.375 73.25 C23.59316406 73.04117188 23.59316406 73.04117188 24.8359375 72.828125 C27.12142369 72.20324856 27.12142369 72.20324856 28.10546875 70.22460938 C31.21220118 62.49847786 30.56251961 50.39577401 27.59765625 42.7265625 C26.05120835 39.38856931 24.21979507 36.24263256 22.28857422 33.11425781 C20.84888528 30.75205505 19.5027803 28.34831523 18.16015625 25.9296875 C12.49388936 14.31828423 12.49388936 14.31828423 2.75 6.75 C1.8425 6.5025 0.935 6.255 0 6 C0 4.02 0 2.04 0 0 Z " fill="#000000" transform="translate(1215,47)"/>
<path d="M0 0 C4.70588235 0.70588235 4.70588235 0.70588235 6 2 C7.70772422 2.10403846 9.41973806 2.13853224 11.13061523 2.14526367 C12.7725309 2.15483345 12.7725309 2.15483345 14.44761658 2.16459656 C15.63923904 2.16570938 16.83086151 2.1668222 18.05859375 2.16796875 C19.27321793 2.17129715 20.4878421 2.17462555 21.73927307 2.17805481 C24.31421529 2.18312923 26.88916411 2.18546298 29.46411133 2.18530273 C33.41693897 2.18748863 37.36948745 2.20563762 41.32226562 2.22460938 C43.81770737 2.22754322 46.31315045 2.22952808 48.80859375 2.23046875 C49.99819199 2.23765427 51.18779022 2.24483978 52.41343689 2.25224304 C53.51119949 2.24916641 54.6089621 2.24608978 55.73999023 2.24291992 C56.7096019 2.24434494 57.67921356 2.24576996 58.6782074 2.24723816 C61.19358149 2.22525714 61.19358149 2.22525714 63 0 C64.32 0 65.64 0 67 0 C68.06309567 5.17317421 68.11693938 10.12369336 68.0625 15.375 C68.05798828 16.20644531 68.05347656 17.03789063 68.04882812 17.89453125 C68.03713164 19.92971897 68.01919935 21.96486923 68 24 C66.35 24 64.7 24 63 24 C62.63648438 22.96939453 62.63648438 22.96939453 62.265625 21.91796875 C61.93046875 21.01691406 61.5953125 20.11585937 61.25 19.1875 C60.92515625 18.29417969 60.6003125 17.40085937 60.265625 16.48046875 C58.77709897 13.56314149 57.81626317 12.66168675 55 11 C52.37256926 10.47730899 49.89962186 10.08547616 47.25 9.8125 C46.20392578 9.6897168 46.20392578 9.6897168 45.13671875 9.56445312 C43.42573224 9.36522867 41.71299963 9.18110071 40 9 C40.10795373 16.42417886 40.22067453 23.84826961 40.33933926 31.27228546 C40.39430409 34.72023064 40.44767895 38.1681846 40.49731445 41.61621094 C40.55456112 45.58797185 40.61891359 49.55960292 40.68359375 53.53125 C40.70030624 54.75863892 40.71701874 55.98602783 40.73423767 57.25061035 C40.83728123 63.24664757 41.09816435 69.06906662 42 75 C45.63 75.66 49.26 76.32 53 77 C53 78.65 53 80.3 53 82 C40.13 82 27.26 82 14 82 C14 80.35 14 78.7 14 77 C14.62648438 76.90203125 15.25296875 76.8040625 15.8984375 76.703125 C16.71570312 76.55359375 17.53296875 76.4040625 18.375 76.25 C19.59316406 76.04117188 19.59316406 76.04117188 20.8359375 75.828125 C23.09760201 75.20150351 23.09760201 75.20150351 24.11532593 73.33233643 C25.22684875 70.40194065 25.28061447 67.98961349 25.31884766 64.85449219 C25.33871735 63.61350769 25.35858704 62.37252319 25.37905884 61.09393311 C25.39093424 59.74491555 25.40259715 58.39589611 25.4140625 57.046875 C25.43277907 55.66252494 25.45235285 54.27818622 25.4727478 52.89385986 C25.52402362 49.25747373 25.56367346 45.62105063 25.60089111 41.98449707 C25.64095945 38.27082203 25.69203884 34.55730017 25.7421875 30.84375 C25.83889283 23.56260518 25.92331463 16.28138611 26 9 C23.55990918 9.25511405 21.12422942 9.52832678 18.6875 9.8125 C17.99720703 9.88275391 17.30691406 9.95300781 16.59570312 10.02539062 C13.68656483 10.37673583 11.47610611 10.64576926 9.0925293 12.41918945 C7.61114297 14.56264789 6.7298738 16.7517144 5.8125 19.1875 C5.46832031 20.08855469 5.12414063 20.98960938 4.76953125 21.91796875 C4.51558594 22.60503906 4.26164062 23.29210937 4 24 C2.02 24 0.04 24 -2 24 C-1.86184471 20.18718055 -1.71319438 16.37484283 -1.5625 12.5625 C-1.52318359 11.47388672 -1.48386719 10.38527344 -1.44335938 9.26367188 C-1.40146484 8.22919922 -1.35957031 7.19472656 -1.31640625 6.12890625 C-1.27974854 5.17056885 -1.24309082 4.21223145 -1.20532227 3.22485352 C-1 1 -1 1 0 0 Z " fill="#000000" transform="translate(1140,44)"/>
<path d="M0 0 C12.87 0 25.74 0 39 0 C39 1.65 39 3.3 39 5 C38.04287109 5.30744141 38.04287109 5.30744141 37.06640625 5.62109375 C36.24011719 5.89050781 35.41382813 6.15992188 34.5625 6.4375 C33.73878906 6.70433594 32.91507812 6.97117187 32.06640625 7.24609375 C30.03780412 7.82155494 30.03780412 7.82155494 29 9 C27.71500723 15.45326764 27.85559315 21.91061628 27.8671875 28.46875 C27.86623077 29.66302612 27.86527405 30.85730225 27.86428833 32.08776855 C27.86360963 34.60587619 27.86544226 37.1239856 27.86962891 39.64208984 C27.87498147 43.48669379 27.86967335 47.33118092 27.86328125 51.17578125 C27.86394209 53.62760442 27.86522336 56.07942752 27.8671875 58.53125 C27.86516327 59.67621948 27.86313904 60.82118896 27.86105347 62.00085449 C27.80997688 70.0642889 27.80997688 70.0642889 29 78 C32.28463659 80.18975773 35.20696275 80.99806563 39 82 C39 83.65 39 85.3 39 87 C26.13 87 13.26 87 0 87 C0 85.35 0 83.7 0 82 C0.63808594 81.79503906 1.27617187 81.59007813 1.93359375 81.37890625 C2.75988281 81.10949219 3.58617187 80.84007813 4.4375 80.5625 C5.26121094 80.29566406 6.08492188 80.02882813 6.93359375 79.75390625 C8.96219588 79.17844506 8.96219588 79.17844506 10 78 C11.28499277 71.54673236 11.14440685 65.08938372 11.1328125 58.53125 C11.13376923 57.33697388 11.13472595 56.14269775 11.13571167 54.91223145 C11.13639037 52.39412381 11.13455774 49.8760144 11.13037109 47.35791016 C11.12501853 43.51330621 11.13032665 39.66881908 11.13671875 35.82421875 C11.13605791 33.37239558 11.13477664 30.92057248 11.1328125 28.46875 C11.13584885 26.75129578 11.13584885 26.75129578 11.13894653 24.99914551 C11.19002312 16.9357111 11.19002312 16.9357111 10 9 C6.71536341 6.81024227 3.79303725 6.00193437 0 5 C0 3.35 0 1.7 0 0 Z " fill="#2D4798" transform="translate(341,41)"/>
<path d="M0 0 C11.88 0 23.76 0 36 0 C36 1.98 36 3.96 36 6 C33.03 6.99 30.06 7.98 27 9 C25.77303192 14.75298101 25.83828901 20.42480744 25.83203125 26.27734375 C25.82870285 27.3620546 25.82537445 28.44676544 25.82194519 29.56434631 C25.81689399 31.85303322 25.81453631 34.14172745 25.81469727 36.43041992 C25.81250981 39.92183605 25.79433199 43.41293654 25.77539062 46.90429688 C25.77245648 49.13281142 25.77047183 51.36132747 25.76953125 53.58984375 C25.76234573 54.62858139 25.75516022 55.66731903 25.74775696 56.73753357 C25.764966 62.22552751 26.16628209 66.81498887 28 72 C30.64 72.66 33.28 73.32 36 74 C36 75.65 36 77.3 36 79 C24.12 79 12.24 79 0 79 C0 77.35 0 75.7 0 74 C0.63808594 73.81824219 1.27617188 73.63648437 1.93359375 73.44921875 C2.75988281 73.19785156 3.58617187 72.94648437 4.4375 72.6875 C5.26121094 72.44386719 6.08492187 72.20023437 6.93359375 71.94921875 C7.61550781 71.63597656 8.29742188 71.32273437 9 71 C10.02508877 67.92473368 10.13268186 65.80416691 10.14526367 62.58227539 C10.15164352 61.47425064 10.15802338 60.36622589 10.16459656 59.22462463 C10.16570938 58.02772507 10.1668222 56.8308255 10.16796875 55.59765625 C10.17129715 54.36840927 10.17462555 53.13916229 10.17805481 51.87266541 C10.18312123 49.27098973 10.18546322 46.66930755 10.18530273 44.06762695 C10.1851811 40.08211773 10.20564856 36.09679194 10.22460938 32.11132812 C10.2275433 29.58593845 10.2295281 27.06054746 10.23046875 24.53515625 C10.24124702 22.74284325 10.24124702 22.74284325 10.25224304 20.9143219 C10.24916641 19.80314499 10.24608978 18.69196808 10.24291992 17.54711914 C10.24434494 16.57021622 10.24576996 15.59331329 10.24723816 14.58680725 C9.98941878 11.88929061 9.46881576 10.26357942 8 8 C6.06018382 7.09390008 6.06018382 7.09390008 3.875 6.75 C2.59625 6.5025 1.3175 6.255 0 6 C0 4.02 0 2.04 0 0 Z " fill="#000000" transform="translate(1094,47)"/>
<path d="M0 0 C11.88 0 23.76 0 36 0 C36 1.98 36 3.96 36 6 C33.03 6.99 30.06 7.98 27 9 C25.77303192 14.75298101 25.83828901 20.42480744 25.83203125 26.27734375 C25.82870285 27.3620546 25.82537445 28.44676544 25.82194519 29.56434631 C25.81689399 31.85303322 25.81453631 34.14172745 25.81469727 36.43041992 C25.81250981 39.92183605 25.79433199 43.41293654 25.77539062 46.90429688 C25.77245648 49.13281142 25.77047183 51.36132747 25.76953125 53.58984375 C25.76234573 54.62858139 25.75516022 55.66731903 25.74775696 56.73753357 C25.764966 62.22552751 26.16628209 66.81498887 28 72 C30.64 72.66 33.28 73.32 36 74 C36 75.65 36 77.3 36 79 C24.12 79 12.24 79 0 79 C0 77.35 0 75.7 0 74 C0.63808594 73.81824219 1.27617188 73.63648437 1.93359375 73.44921875 C2.75988281 73.19785156 3.58617187 72.94648437 4.4375 72.6875 C5.26121094 72.44386719 6.08492187 72.20023437 6.93359375 71.94921875 C7.61550781 71.63597656 8.29742188 71.32273437 9 71 C10.02508877 67.92473368 10.13268186 65.80416691 10.14526367 62.58227539 C10.15164352 61.47425064 10.15802338 60.36622589 10.16459656 59.22462463 C10.16570938 58.02772507 10.1668222 56.8308255 10.16796875 55.59765625 C10.17129715 54.36840927 10.17462555 53.13916229 10.17805481 51.87266541 C10.18312123 49.27098973 10.18546322 46.66930755 10.18530273 44.06762695 C10.1851811 40.08211773 10.20564856 36.09679194 10.22460938 32.11132812 C10.2275433 29.58593845 10.2295281 27.06054746 10.23046875 24.53515625 C10.24124702 22.74284325 10.24124702 22.74284325 10.25224304 20.9143219 C10.24916641 19.80314499 10.24608978 18.69196808 10.24291992 17.54711914 C10.24434494 16.57021622 10.24576996 15.59331329 10.24723816 14.58680725 C9.98941878 11.88929061 9.46881576 10.26357942 8 8 C6.06018382 7.09390008 6.06018382 7.09390008 3.875 6.75 C2.59625 6.5025 1.3175 6.255 0 6 C0 4.02 0 2.04 0 0 Z " fill="#000000" transform="translate(757,47)"/>
<path d="M0 0 C0 4.95 0 9.9 0 15 C2.64 15 5.28 15 8 15 C8 18.3 8 21.6 8 25 C5.03 25 2.06 25 -1 25 C-0.67 36.55 -0.34 48.1 0 60 C2.31 60.99 4.62 61.98 7 63 C7 65.64 7 68.28 7 71 C4.39521117 71.0809313 1.79293347 71.14045434 -0.8125 71.1875 C-1.55048828 71.21263672 -2.28847656 71.23777344 -3.04882812 71.26367188 C-8.50290024 71.33770905 -8.50290024 71.33770905 -10.94921875 69.67578125 C-12.75885144 66.78978711 -13.12398846 64.30434081 -13.11352539 60.98754883 C-13.11344986 60.18694534 -13.11337433 59.38634186 -13.11329651 58.56147766 C-13.10813522 57.70201035 -13.10297394 56.84254303 -13.09765625 55.95703125 C-13.0962413 55.0734343 -13.09482635 54.18983734 -13.09336853 53.27946472 C-13.08777069 50.45710872 -13.07521861 47.63483203 -13.0625 44.8125 C-13.05748472 42.89908969 -13.05292186 40.98567813 -13.04882812 39.07226562 C-13.03865283 34.38145527 -13.01907698 29.69081642 -13 25 C-25.21 25 -37.42 25 -50 25 C-50 21.7 -50 18.4 -50 15 C-37.79 15 -25.58 15 -13 15 C-13 12.69 -13 10.38 -13 8 C-10.6640625 5.56640625 -10.6640625 5.56640625 -7.625 3.5625 C-6.12839844 2.54349609 -6.12839844 2.54349609 -4.6015625 1.50390625 C-2 0 -2 0 0 0 Z " fill="#F9F9FB" transform="translate(159,47)"/>
<path d="M0 0 C3.980625 -0.0825 7.96125 -0.165 12.0625 -0.25 C13.30394775 -0.28641602 14.54539551 -0.32283203 15.82446289 -0.36035156 C22.42473911 -0.42644494 26.7500233 -0.16503006 32 4 C34.62202269 7.68744286 34.25545295 11.70678785 34.1953125 16.046875 C34.1924826 16.81807678 34.18965271 17.58927856 34.18673706 18.3838501 C34.17557013 20.83939332 34.15047229 23.2945676 34.125 25.75 C34.11496568 27.41796347 34.10584061 29.08593268 34.09765625 30.75390625 C34.07564225 34.83607897 34.04113667 38.917977 34 43 C29.71 43 25.42 43 21 43 C20.67 33.1 20.34 23.2 20 13 C17.36 12.67 14.72 12.34 12 12 C12 22.23 12 32.46 12 43 C8.04 43 4.08 43 0 43 C0 28.81 0 14.62 0 0 Z " fill="#FBFBFC" transform="translate(46,75)"/>
<path d="M0 0 C9.74981882 8.17127672 16.81368643 17.06605928 20.875 29.25 C21.76582022 39.4053505 22.28881042 50.2938198 16.875 59.25 C16.41609375 60.0234375 15.9571875 60.796875 15.484375 61.59375 C14.03161401 63.88758314 12.49463198 66.0714522 10.875 68.25 C10.21564453 69.15878906 10.21564453 69.15878906 9.54296875 70.0859375 C-3.81334769 87.09888236 -29.32406732 95.88595971 -50.05078125 98.74609375 C-79.56858814 102.09542265 -111.59652145 97.08814396 -135.43652344 78.2734375 C-144.33841487 70.90067374 -152.75869877 60.8952051 -155.125 49.25 C-156.42787813 35.06676975 -155.19057073 23.69183332 -146.4375 12.0625 C-112.02422912 -27.99018958 -41.24797278 -31.50535345 0 0 Z M-142.9375 11.0625 C-151.76324405 21.632126 -154.03755315 32.77928959 -153.34716797 46.1171875 C-152.40322995 55.17899251 -147.03260176 62.64884332 -141.125 69.25 C-140.54105469 69.92675781 -139.95710938 70.60351562 -139.35546875 71.30078125 C-125.12606869 86.72844658 -101.11981029 95.44521636 -80.38720703 96.42700195 C-79.05251654 96.45354829 -77.71768729 96.47369718 -76.3828125 96.48828125 C-75.29285477 96.50038887 -75.29285477 96.50038887 -74.18087769 96.51274109 C-72.64632487 96.52649833 -71.11174254 96.5372574 -69.57714844 96.54516602 C-68.04352522 96.55658935 -66.50993863 96.57688478 -64.9765625 96.60668945 C-40.29346497 97.08444404 -14.58190415 89.79848824 3.625 72.49609375 C4.73875 71.38427734 4.73875 71.38427734 5.875 70.25 C6.535 69.60160156 7.195 68.95320313 7.875 68.28515625 C17.00961483 58.65837467 19.37006009 47.61704841 19.14453125 34.7734375 C18.63803971 22.61265058 10.86210093 12.84062801 2.375 4.625 C-37.1009055 -29.06512393 -107.1784276 -26.56632782 -142.9375 11.0625 Z " fill="#EFF1F7" transform="translate(175.125,49.75)"/>
<path d="M0 0 C1.60246582 0.03927612 1.60246582 0.03927612 3.23730469 0.0793457 C4.97753906 0.10351562 4.97753906 0.10351562 6.75292969 0.12817383 C7.95949219 0.17006836 9.16605469 0.21196289 10.40917969 0.25512695 C12.24222656 0.28896484 12.24222656 0.28896484 14.11230469 0.32348633 C17.12916471 0.38240938 20.14355483 0.4646343 23.15917969 0.56762695 C23.15917969 3.20762695 23.15917969 5.84762695 23.15917969 8.56762695 C16.22917969 8.56762695 9.29917969 8.56762695 2.15917969 8.56762695 C2.15917969 11.20762695 2.15917969 13.84762695 2.15917969 16.56762695 C3.25617188 16.5212207 4.35316406 16.47481445 5.48339844 16.42700195 C6.93779819 16.38946906 8.39222752 16.35307052 9.84667969 16.31762695 C10.56791016 16.28411133 11.28914063 16.2505957 12.03222656 16.21606445 C15.65429285 16.14990799 17.83173332 16.40798076 21.13964844 18.02075195 C24.10468174 21.76002026 23.89545804 24.9236104 23.78417969 29.56762695 C23.81318359 30.77805664 23.81318359 30.77805664 23.84277344 32.01293945 C23.83632812 32.79411133 23.82988281 33.5752832 23.82324219 34.38012695 C23.81760254 35.08782227 23.81196289 35.79551758 23.80615234 36.5246582 C22.78998207 39.73345552 20.96469351 40.82068346 18.15917969 42.56762695 C15.29663086 43.02172852 15.29663086 43.02172852 12.20214844 42.95825195 C11.09033203 42.94536133 9.97851562 42.9324707 8.83300781 42.91918945 C7.68251953 42.88567383 6.53203125 42.8521582 5.34667969 42.81762695 C4.17685547 42.79958008 3.00703125 42.7815332 1.80175781 42.76293945 C-1.07993812 42.71589136 -3.95995828 42.65016405 -6.84082031 42.56762695 C-6.84082031 39.92762695 -6.84082031 37.28762695 -6.84082031 34.56762695 C0.41917969 34.56762695 7.67917969 34.56762695 15.15917969 34.56762695 C15.15917969 31.59762695 15.15917969 28.62762695 15.15917969 25.56762695 C13.99 25.63723633 12.82082031 25.7068457 11.61621094 25.77856445 C10.06809148 25.83485971 8.51990967 25.88945798 6.97167969 25.94262695 C6.20275391 25.99290039 5.43382813 26.04317383 4.64160156 26.0949707 C0.18314919 26.20978064 -1.33937507 25.9969732 -4.85644531 22.9855957 C-7.09744605 19.12560428 -7.48527696 16.93560713 -7.40332031 12.50512695 C-7.40460938 11.31790039 -7.40589844 10.13067383 -7.40722656 8.9074707 C-6.60305288 4.16561901 -4.93987429 0.98704088 0 0 Z " fill="#F9F9FB" transform="translate(110.8408203125,75.432373046875)"/>
<path d="M0 0 C2.375 0.3125 2.375 0.3125 5 1 C5.66 1.99 6.32 2.98 7 4 C7.33 2.68 7.66 1.36 8 0 C9.32 0 10.64 0 12 0 C12.66 1.32 13.32 2.64 14 4 C14.350625 3.34 14.70125 2.68 15.0625 2 C17 0 17 0 20.5625 -0.3125 C24 0 24 0 26 1 C26.625 3.0625 26.625 3.0625 27 5 C27.66 3.35 28.32 1.7 29 0 C30.32 0 31.64 0 33 0 C33.66 1.32 34.32 2.64 35 4 C35.33 3.34 35.66 2.68 36 2 C38.28514912 -0.28514912 38.88929768 -0.36276313 42 -0.5 C45.11070232 -0.36276313 45.71485088 -0.28514912 48 2 C48.495 2.99 48.495 2.99 49 4 C49.66 2.68 50.32 1.36 51 0 C51.99 0 52.98 0 54 0 C54.66 1.32 55.32 2.64 56 4 C56.61875 3.01 56.61875 3.01 57.25 2 C58.11625 1.01 58.11625 1.01 59 0 C60.32 0 61.64 0 63 0 C62.37321829 3.66172475 61.35548154 6.8818995 59.9375 10.3125 C59.57527344 11.19550781 59.21304688 12.07851562 58.83984375 12.98828125 C58.56269531 13.65214844 58.28554687 14.31601563 58 15 C56.125 14.6875 56.125 14.6875 54 14 C53.34 13.01 52.68 12.02 52 11 C51.34 12.32 50.68 13.64 50 15 C48.68 15 47.36 15 46 15 C44.68 11.37 43.36 7.74 42 4 C40.35 7.63 38.7 11.26 37 15 C35.68 15 34.36 15 33 15 C32.34 13.68 31.68 12.36 31 11 C30.34 12.32 29.68 13.64 29 15 C27.68 15 26.36 15 25 15 C23.68 11.37 22.36 7.74 21 4 C19.35 7.63 17.7 11.26 16 15 C12 14 12 14 10 11 C9.34 12.32 8.68 13.64 8 15 C6.68 15 5.36 15 4 15 C3.32532438 13.25307205 2.66055844 11.50231475 2 9.75 C1.62875 8.77546875 1.2575 7.8009375 0.875 6.796875 C0 4 0 4 0 0 Z " fill="#243D8D" transform="translate(23,165)"/>
<path d="M0 0 C0.99 0.33 1.98 0.66 3 1 C-9.43211176 18.14774036 -34.44665904 26.89091721 -54.6027832 30.17553711 C-82.74644407 34.05915526 -115.55285666 30.10457537 -138.90722656 12.56787109 C-142.73332921 9.51812159 -146.39518653 6.30694524 -150 3 C-149.67 2.34 -149.34 1.68 -149 1 C-146.01422497 2.34294685 -143.96310949 3.8503686 -141.625 6.125 C-126.10415374 19.9469039 -103.75825126 27.01430532 -83.2578125 27.23828125 C-82.16785477 27.25038887 -82.16785477 27.25038887 -81.05587769 27.26274109 C-79.52132487 27.27649833 -77.98674254 27.2872574 -76.45214844 27.29516602 C-74.91852522 27.30658935 -73.38493863 27.32688478 -71.8515625 27.35668945 C-46.71920532 27.84313971 -21.41605993 20.27827011 -2.86328125 2.8203125 C-1.90500367 1.88413357 -0.9472927 0.9472927 0 0 Z " fill="#BEC5DE" transform="translate(182,118)"/>
<path d="M0 0 C3.63 0 7.26 0 11 0 C12 1 12 1 12.11352539 3.95922852 C12.10828857 5.25272217 12.10305176 6.54621582 12.09765625 7.87890625 C12.0962413 8.5655687 12.09482635 9.25223114 12.09336853 9.95970154 C12.08775479 12.16067801 12.07520007 14.36155409 12.0625 16.5625 C12.05748676 18.05143083 12.05292355 19.54036324 12.04882812 21.02929688 C12.03778093 24.68623075 12.02050713 28.34310558 12 32 C8.04 32 4.08 32 0 32 C0 21.44 0 10.88 0 0 Z " fill="#EFEFF5" transform="translate(86,86)"/>
<path d="M0 0 C1.29349365 0.00523682 2.5869873 0.01047363 3.91967773 0.01586914 C4.9496714 0.01799156 4.9496714 0.01799156 6.00047302 0.02015686 C8.20144949 0.0257706 10.40232557 0.03832532 12.60327148 0.05102539 C14.09220231 0.05603863 15.58113473 0.06060184 17.07006836 0.06469727 C20.72700223 0.07574446 24.38387707 0.09301826 28.04077148 0.11352539 C27.71077148 3.74352539 27.38077148 7.37352539 27.04077148 11.11352539 C16.81077148 11.11352539 6.58077148 11.11352539 -3.95922852 11.11352539 C-3.95922852 0.15188856 -3.95922852 0.15188856 0 0 Z " fill="#F0F0F6" transform="translate(49.959228515625,60.886474609375)"/>
<path d="M0 0 C3.94647442 2.89752043 5.81380983 5.80010781 6.5625 10.625 C5.9708521 14.17488738 5.18762475 16.16419014 3 19 C-0.66908557 21.44605705 -3.73618769 21.83946402 -8 21 C-11.883836 17.85987727 -13.8023937 15.71258797 -14.375 10.75 C-13.88072704 5.80727042 -12.46171699 4.46171699 -9 1 C-5.76645861 -0.6167707 -3.57239465 -0.47631929 0 0 Z " fill="#F3F3F7" transform="translate(96,56)"/>
<path d="M0 0 C5.33333333 0 10.66666667 0 16 0 C16 0.66 16 1.32 16 2 C16.99 1.34 17.98 0.68 19 0 C21.33199388 -0.07905064 23.66832622 -0.08798769 26 0 C27.40333568 5.76926889 26.67296616 11.18143105 26 17 C23.36 17 20.72 17 18 17 C18.99 12.38 19.98 7.76 21 3 C17.28809813 6.71190187 16.47793992 7.58382831 15.25 12.25 C15.00765625 13.14203125 14.7653125 14.0340625 14.515625 14.953125 C14.34546875 15.62859375 14.1753125 16.3040625 14 17 C12.02 17 10.04 17 8 17 C8.99 12.38 9.98 7.76 11 3 C6.93439793 6.89619288 6.93439793 6.89619288 5.8125 11.6875 C5.06944444 15.93055556 5.06944444 15.93055556 4 17 C2.33382885 17.04063832 0.66611905 17.042721 -1 17 C-0.5547115 11.72684667 0.08373163 6.98229776 2 2 C1.34 2 0.68 2 0 2 C0 1.34 0 0.68 0 0 Z " fill="#2D4798" transform="translate(556,164)"/>
<path d="M0 0 C2.06183633 -0.08150744 4.12461349 -0.1394194 6.1875 -0.1875 C7.33605469 -0.22230469 8.48460937 -0.25710937 9.66796875 -0.29296875 C13.31350395 0.02756483 15.14350577 0.74542877 18 3 C18.625 5.875 18.625 5.875 18 9 C15.5 11.875 15.5 11.875 13 14 C13.33 14.5775 13.66 15.155 14 15.75 C15 18 15 18 15 22 C15.66 22 16.32 22 17 22 C17 22.66 17 23.32 17 24 C14.69 24 12.38 24 10 24 C9.70996094 23.04287109 9.70996094 23.04287109 9.4140625 22.06640625 C9.15367187 21.24011719 8.89328125 20.41382813 8.625 19.5625 C8.36976563 18.73878906 8.11453125 17.91507813 7.8515625 17.06640625 C7.19117773 14.82201984 7.19117773 14.82201984 5 14 C4.979375 15.27875 4.95875 16.5575 4.9375 17.875 C4.92589844 18.59429687 4.91429687 19.31359375 4.90234375 20.0546875 C4.87350758 22.08185404 4.87350758 22.08185404 6 24 C2.7 24 -0.6 24 -4 24 C-4 23.34 -4 22.68 -4 22 C-3.34 22 -2.68 22 -2 22 C-1.86722656 21.13117188 -1.73445312 20.26234375 -1.59765625 19.3671875 C-1.42105469 18.21476562 -1.24445312 17.06234375 -1.0625 15.875 C-0.88847656 14.73804688 -0.71445312 13.60109375 -0.53515625 12.4296875 C-0.18710708 10.19912421 0.19900827 7.97405675 0.62890625 5.7578125 C1.21694583 2.91763983 1.21694583 2.91763983 0 0 Z M8 3 C7.34 5.97 6.68 8.94 6 12 C9.24983135 10.91215032 9.24983135 10.91215032 12 9 C12.04063832 7.33382885 12.042721 5.66611905 12 4 C10.68 3.67 9.36 3.34 8 3 Z " fill="#2D4798" transform="translate(714,157)"/>
<path d="M0 0 C5.94 0 11.88 0 18 0 C17.67 2.31 17.34 4.62 17 7 C16.01 7 15.02 7 14 7 C13.67 6.01 13.34 5.02 13 4 C11.35 3.67 9.7 3.34 8 3 C7.34 5.64 6.68 8.28 6 11 C6.99 10.67 7.98 10.34 9 10 C9.33 9.34 9.66 8.68 10 8 C10.99 8 11.98 8 13 8 C12.67 10.64 12.34 13.28 12 16 C11.01 16 10.02 16 9 16 C8.67 15.34 8.34 14.68 8 14 C7.34 14 6.68 14 6 14 C5.34 16.64 4.68 19.28 4 22 C7.65316671 20.75023244 8.78065836 20.32901247 11 17 C11.99 17 12.98 17 14 17 C13.67 19.31 13.34 21.62 13 24 C7.39 24 1.78 24 -4 24 C-4 23.34 -4 22.68 -4 22 C-3.34 22 -2.68 22 -2 22 C-1.86722656 21.13117188 -1.73445312 20.26234375 -1.59765625 19.3671875 C-1.42105469 18.21476562 -1.24445312 17.06234375 -1.0625 15.875 C-0.88847656 14.73804688 -0.71445312 13.60109375 -0.53515625 12.4296875 C-0.18710708 10.19912421 0.19900827 7.97405675 0.62890625 5.7578125 C1.21694583 2.91763983 1.21694583 2.91763983 0 0 Z " fill="#2D4798" transform="translate(893,157)"/>
<path d="M0 0 C-0.61799546 6.05635546 -1.75829717 11.95469792 -3.0715332 17.89477539 C-3.98736015 21.52674256 -3.98736015 21.52674256 -3 25 C-3.59167969 24.98839844 -4.18335938 24.97679687 -4.79296875 24.96484375 C-9.86728515 24.9032542 -9.86728515 24.9032542 -14.875 25.625 C-17 26 -17 26 -20 24 C-21.03574044 19.33450252 -20.3574133 15.66717149 -18.125 11.5 C-16 9 -16 9 -14 8 C-11.6670134 7.95977609 -9.33293334 7.95679753 -7 8 C-6.84850702 4.37114676 -6.84850702 4.37114676 -8 1 C-5.07175348 0.02391783 -3.04386724 -0.08226668 0 0 Z M-12.5625 11.5 C-14.57415567 14.9985316 -14.66579094 17.98949133 -15 22 C-13.07690578 21.96044102 -13.07690578 21.96044102 -11 21 C-8.89765341 17.81023276 -7.89507155 15.96534169 -8.3125 12.125 C-8.539375 11.42375 -8.76625 10.7225 -9 10 C-11.1205318 9.76915606 -11.1205318 9.76915606 -12.5625 11.5 Z " fill="#2D4798" transform="translate(698,156)"/>
<path d="M0 0 C-0.61799546 6.05635546 -1.75829717 11.95469792 -3.0715332 17.89477539 C-3.98736015 21.52674256 -3.98736015 21.52674256 -3 25 C-3.59167969 24.98839844 -4.18335938 24.97679687 -4.79296875 24.96484375 C-9.86728515 24.9032542 -9.86728515 24.9032542 -14.875 25.625 C-17 26 -17 26 -20 24 C-21.03574044 19.33450252 -20.3574133 15.66717149 -18.125 11.5 C-16 9 -16 9 -14 8 C-11.6670134 7.95977609 -9.33293334 7.95679753 -7 8 C-6.84850702 4.37114676 -6.84850702 4.37114676 -8 1 C-5.07175348 0.02391783 -3.04386724 -0.08226668 0 0 Z M-12.5625 11.5 C-14.57415567 14.9985316 -14.66579094 17.98949133 -15 22 C-13.07690578 21.96044102 -13.07690578 21.96044102 -11 21 C-8.89765341 17.81023276 -7.89507155 15.96534169 -8.3125 12.125 C-8.539375 11.42375 -8.76625 10.7225 -9 10 C-11.1205318 9.76915606 -11.1205318 9.76915606 -12.5625 11.5 Z " fill="#2D4798" transform="translate(531,156)"/>
<path d="M0 0 C0 2.64 0 5.28 0 8 C2.31 8 4.62 8 7 8 C8.40333568 13.76926889 7.67296616 19.18143105 7 25 C4.36 25 1.72 25 -1 25 C-0.01 20.38 0.98 15.76 2 11 C-1.71190187 14.71190187 -2.52206008 15.58382831 -3.75 20.25 C-3.99234375 21.14203125 -4.2346875 22.0340625 -4.484375 22.953125 C-4.65453125 23.62859375 -4.8246875 24.3040625 -5 25 C-6.98 25 -8.96 25 -11 25 C-10.87359131 24.45061768 -10.74718262 23.90123535 -10.61694336 23.33520508 C-10.0466759 20.82988464 -9.49197471 18.32136081 -8.9375 15.8125 C-8.73833984 14.94818359 -8.53917969 14.08386719 -8.33398438 13.19335938 C-6.97710095 7.1008463 -6.97710095 7.1008463 -8 1 C-5.07175348 0.02391783 -3.04386724 -0.08226668 0 0 Z " fill="#2D4798" transform="translate(865,156)"/>
<path d="M0 0 C1.39605469 0.12761719 1.39605469 0.12761719 2.8203125 0.2578125 C2.84536865 0.84272461 2.8704248 1.42763672 2.89624023 2.03027344 C3.01254212 4.68965721 3.13511317 7.34871653 3.2578125 10.0078125 C3.29712891 10.92820313 3.33644531 11.84859375 3.37695312 12.796875 C3.41884766 13.68632812 3.46074219 14.57578125 3.50390625 15.4921875 C3.54056396 16.30913086 3.57722168 17.12607422 3.61499023 17.96777344 C3.78873783 20.57048861 3.78873783 20.57048861 4.8203125 24.2578125 C1.5203125 24.2578125 -1.7796875 24.2578125 -5.1796875 24.2578125 C-4.1896875 21.9478125 -3.1996875 19.6378125 -2.1796875 17.2578125 C-4.4896875 17.2578125 -6.7996875 17.2578125 -9.1796875 17.2578125 C-9.1796875 19.5678125 -9.1796875 21.8778125 -9.1796875 24.2578125 C-11.8196875 24.2578125 -14.4596875 24.2578125 -17.1796875 24.2578125 C-15.24232304 20.84529743 -13.29792072 17.43748237 -11.3359375 14.0390625 C-10.0151962 11.7451434 -8.7542447 9.44706302 -7.5234375 7.1015625 C-7.03875 6.204375 -6.5540625 5.3071875 -6.0546875 4.3828125 C-5.63960938 3.58101562 -5.22453125 2.77921875 -4.796875 1.953125 C-3.1796875 0.2578125 -3.1796875 0.2578125 0 0 Z M-4.1796875 8.2578125 C-4.8396875 10.2378125 -5.4996875 12.2178125 -6.1796875 14.2578125 C-5.1896875 14.2578125 -4.1996875 14.2578125 -3.1796875 14.2578125 C-3.1796875 12.2778125 -3.1796875 10.2978125 -3.1796875 8.2578125 C-3.5096875 8.2578125 -3.8396875 8.2578125 -4.1796875 8.2578125 Z " fill="#2D4798" transform="translate(460.1796875,156.7421875)"/>
<path d="M0 0 C0 0.99 0 1.98 0 3 C-0.928125 3.4125 -1.85625 3.825 -2.8125 4.25 C-5.88054681 5.93441786 -7.19040465 7.08454083 -9 10 C-7.88625 9.938125 -6.7725 9.87625 -5.625 9.8125 C-3.830625 9.9053125 -3.830625 9.9053125 -2 10 C0.34168764 13.51253146 0.49623677 14.86469356 0 19 C-1.54580975 21.89839328 -2.72116462 23.54079398 -5.87109375 24.671875 C-9.55250243 25.36779347 -11.54864207 25.20687239 -15 23.625 C-17.50251407 20.34045028 -17.6643103 18.36049093 -17.41796875 14.3125 C-16.47607307 9.1012641 -14.15769724 5.89780602 -9.9375 2.625 C-6.23358856 0.57602771 -4.28091361 0 0 0 Z M-10 13 C-12.1519437 16.22791555 -12.20086443 17.28400809 -12 21 C-10.68 21.33 -9.36 21.66 -8 22 C-5.70986347 18.5647952 -5.82157027 17.014669 -6 13 C-7.32 13 -8.64 13 -10 13 Z " fill="#2D4798" transform="translate(1286,157)"/>
<path d="M0 0 C2.3125 1.0625 2.3125 1.0625 4 3 C5.44425226 7.91045767 5.0454621 11.53808397 3.07421875 16.140625 C0.53175649 20.54139604 -3.11093069 22.91413957 -7.875 24.3125 C-9.421875 24.6528125 -9.421875 24.6528125 -11 25 C-11 23.68 -11 22.36 -11 21 C-10.030625 20.54625 -9.06125 20.0925 -8.0625 19.625 C-4.92920418 18.34213779 -4.92920418 18.34213779 -4 16 C-5.7015625 15.566875 -5.7015625 15.566875 -7.4375 15.125 C-8.613125 14.75375 -9.78875 14.3825 -11 14 C-12.58939347 10.82121306 -12.41576711 8.5043228 -12 5 C-8.30718017 0.86755877 -5.57163642 -0.96898025 0 0 Z M-5 3 C-6.81602517 7.53832753 -6.81602517 7.53832753 -6 12 C-3.24358584 11.50243908 -3.24358584 11.50243908 -1 10 C-0.95907063 7.66702567 -0.95758277 5.33294775 -1 3 C-2.32 3 -3.64 3 -5 3 Z " fill="#2D4798" transform="translate(1259,157)"/>
<path d="M0 0 C2.3125 1.0625 2.3125 1.0625 4 3 C5.44425226 7.91045767 5.0454621 11.53808397 3.07421875 16.140625 C0.53175649 20.54139604 -3.11093069 22.91413957 -7.875 24.3125 C-9.421875 24.6528125 -9.421875 24.6528125 -11 25 C-11 23.68 -11 22.36 -11 21 C-10.030625 20.54625 -9.06125 20.0925 -8.0625 19.625 C-4.92920418 18.34213779 -4.92920418 18.34213779 -4 16 C-5.7015625 15.566875 -5.7015625 15.566875 -7.4375 15.125 C-8.613125 14.75375 -9.78875 14.3825 -11 14 C-12.58939347 10.82121306 -12.41576711 8.5043228 -12 5 C-8.30718017 0.86755877 -5.57163642 -0.96898025 0 0 Z M-5 3 C-6.81602517 7.53832753 -6.81602517 7.53832753 -6 12 C-3.24358584 11.50243908 -3.24358584 11.50243908 -1 10 C-0.95907063 7.66702567 -0.95758277 5.33294775 -1 3 C-2.32 3 -3.64 3 -5 3 Z " fill="#2D4798" transform="translate(1236,157)"/>
<path d="M0 0 C1 1 1 1 1.0625 3.5625 C1.041875 4.366875 1.02125 5.17125 1 6 C-0.32 6.33 -1.64 6.66 -3 7 C-3.33 6.01 -3.66 5.02 -4 4 C-5.32 4.33 -6.64 4.66 -8 5 C-6.90076139 7.5648901 -6.05999641 8.95059119 -3.875 10.75 C-1.82297196 13.21243364 -1.64689866 13.97197828 -1.5 17.0625 C-2 21 -2 21 -3.5 22.9375 C-8.07957541 24.88381955 -13.22558108 25.79040709 -18 24 C-18 22.35 -18 20.7 -18 19 C-16.68 18.67 -15.36 18.34 -14 18 C-13.67 18.99 -13.34 19.98 -13 21 C-11.35 21 -9.7 21 -8 21 C-8.97774615 17.26678744 -10.05365464 14.76553763 -12.6875 12 C-15 9 -15 9 -15.125 5.8125 C-14 3 -14 3 -12 1.125 C-7.98335422 -0.38124217 -4.25069825 -0.45668659 0 0 Z " fill="#2D4798" transform="translate(1108,157)"/>
<path d="M0 0 C0.33 1.32 0.66 2.64 1 4 C-0.9375 4.5625 -0.9375 4.5625 -3 5 C-3.33 4.67 -3.66 4.34 -4 4 C-4.33 4.99 -4.66 5.98 -5 7 C-4.34 7.33 -3.68 7.66 -3 8 C-3 8.99 -3 9.98 -3 11 C-4.32 11 -5.64 11 -7 11 C-7.1546875 12.918125 -7.1546875 12.918125 -7.3125 14.875 C-8.80160822 27.94606107 -8.80160822 27.94606107 -12.90234375 31.77734375 C-15.69001316 33.40218644 -17.8315009 33.21603403 -21 33 C-20.67 32.01 -20.34 31.02 -20 30 C-19.01 29.67 -18.02 29.34 -17 29 C-16.08558534 26.17956516 -15.37222456 23.50985935 -14.75 20.625 C-14.4715625 19.45324219 -14.4715625 19.45324219 -14.1875 18.2578125 C-13.06768616 13.62231271 -13.06768616 13.62231271 -14 9 C-13.34 9 -12.68 9 -12 9 C-11.773125 8.071875 -11.54625 7.14375 -11.3125 6.1875 C-9.10191991 0.81894835 -5.61765206 -0.48151303 0 0 Z " fill="#2D4798" transform="translate(395,156)"/>
<path d="M0 0 C0.66 0.66 1.32 1.32 2 2 C1.625 4.625 1.625 4.625 1 7 C-0.32 6.67 -1.64 6.34 -3 6 C-3 5.01 -3 4.02 -3 3 C-5.45631001 3.49547543 -5.45631001 3.49547543 -8 5 C-11.16091967 10.34086427 -11.37407183 14.89016005 -11 21 C-8.13275314 20.42655063 -7.1385485 20.1385485 -5 18 C-4.01 18 -3.02 18 -2 18 C-2.33 19.98 -2.66 21.96 -3 24 C-4.58129029 24.22331199 -6.16521089 24.42804644 -7.75 24.625 C-9.07257813 24.79902344 -9.07257813 24.79902344 -10.421875 24.9765625 C-13.26349367 25.0023954 -14.64837549 24.55715677 -17 23 C-19.19333964 18.61332072 -18.76165764 12.42424746 -17.31640625 7.82421875 C-13.49049361 0.41052081 -7.61593817 -0.63466151 0 0 Z " fill="#2D4798" transform="translate(267,157)"/>
<path d="M0 0 C3 0 6 0 9 0 C10.7634375 -0.0309375 10.7634375 -0.0309375 12.5625 -0.0625 C16 0 16 0 17 1 C16.81778142 4.60337232 16.47793976 8.1839229 16.15625 11.77734375 C15.74146718 14.89127116 15.74146718 14.89127116 17 17 C14.36 17 11.72 17 9 17 C9.56606279 12.30976546 10.18537505 7.65499974 11 3 C6.8930908 6.14863039 6.24655602 9.20891845 5.39453125 14.07421875 C5 16 5 16 4 17 C2.33382885 17.04063832 0.66611905 17.042721 -1 17 C-0.5547115 11.72684667 0.08373163 6.98229776 2 2 C1.34 2 0.68 2 0 2 C0 1.34 0 0.68 0 0 Z " fill="#2D4798" transform="translate(1126,164)"/>
<path d="M0 0 C3 0 6 0 9 0 C10.7634375 -0.0309375 10.7634375 -0.0309375 12.5625 -0.0625 C16 0 16 0 17 1 C16.81778142 4.60337232 16.47793976 8.1839229 16.15625 11.77734375 C15.74146718 14.89127116 15.74146718 14.89127116 17 17 C14.36 17 11.72 17 9 17 C9.56606279 12.30976546 10.18537505 7.65499974 11 3 C6.8930908 6.14863039 6.24655602 9.20891845 5.39453125 14.07421875 C5 16 5 16 4 17 C2.33382885 17.04063832 0.66611905 17.042721 -1 17 C-0.5547115 11.72684667 0.08373163 6.98229776 2 2 C1.34 2 0.68 2 0 2 C0 1.34 0 0.68 0 0 Z " fill="#2D4798" transform="translate(1019,164)"/>
<path d="M0 0 C3 0 6 0 9 0 C10.7634375 -0.0309375 10.7634375 -0.0309375 12.5625 -0.0625 C16 0 16 0 17 1 C16.81778142 4.60337232 16.47793976 8.1839229 16.15625 11.77734375 C15.74146718 14.89127116 15.74146718 14.89127116 17 17 C14.36 17 11.72 17 9 17 C9.56606279 12.30976546 10.18537505 7.65499974 11 3 C6.8930908 6.14863039 6.24655602 9.20891845 5.39453125 14.07421875 C5 16 5 16 4 17 C2.33382885 17.04063832 0.66611905 17.042721 -1 17 C-0.5547115 11.72684667 0.08373163 6.98229776 2 2 C1.34 2 0.68 2 0 2 C0 1.34 0 0.68 0 0 Z " fill="#2D4798" transform="translate(655,164)"/>
<path d="M0 0 C3 0 6 0 9 0 C10.7634375 -0.0309375 10.7634375 -0.0309375 12.5625 -0.0625 C16 0 16 0 17 1 C16.81778142 4.60337232 16.47793976 8.1839229 16.15625 11.77734375 C15.74146718 14.89127116 15.74146718 14.89127116 17 17 C14.36 17 11.72 17 9 17 C9.56606279 12.30976546 10.18537505 7.65499974 11 3 C6.8930908 6.14863039 6.24655602 9.20891845 5.39453125 14.07421875 C5 16 5 16 4 17 C2.33382885 17.04063832 0.66611905 17.042721 -1 17 C-0.5547115 11.72684667 0.08373163 6.98229776 2 2 C1.34 2 0.68 2 0 2 C0 1.34 0 0.68 0 0 Z " fill="#2D4798" transform="translate(291,164)"/>
<path d="M0 0 C1.09570312 0.00902344 2.19140625 0.01804688 3.3203125 0.02734375 C4.16335938 0.03894531 5.00640625 0.05054688 5.875 0.0625 C5.43920325 4.23502206 5.00084249 8.37036632 4.25 12.5 C3.62800471 15.04518672 3.62800471 15.04518672 4.875 17.0625 C4.28332031 17.05089844 3.69164062 17.03929687 3.08203125 17.02734375 C-1.99228515 16.9657542 -1.99228515 16.9657542 -7 17.6875 C-9.125 18.0625 -9.125 18.0625 -12.125 16.0625 C-13.16074044 11.39700252 -12.4824133 7.72967149 -10.25 3.5625 C-6.93919878 -0.33256025 -4.96020573 -0.05276815 0 0 Z M-4.6875 3.5625 C-6.69915567 7.0610316 -6.79079094 10.05199133 -7.125 14.0625 C-5.20190578 14.02294102 -5.20190578 14.02294102 -3.125 13.0625 C-1.02265341 9.87273276 -0.02007155 8.02784169 -0.4375 4.1875 C-0.664375 3.48625 -0.89125 2.785 -1.125 2.0625 C-3.2455318 1.83165606 -3.2455318 1.83165606 -4.6875 3.5625 Z " fill="#2D4798" transform="translate(807.125,163.9375)"/>
<path d="M0 0 C1.09570312 0.00902344 2.19140625 0.01804688 3.3203125 0.02734375 C4.16335938 0.03894531 5.00640625 0.05054688 5.875 0.0625 C5.43920325 4.23502206 5.00084249 8.37036632 4.25 12.5 C3.62800471 15.04518672 3.62800471 15.04518672 4.875 17.0625 C4.28332031 17.05089844 3.69164062 17.03929687 3.08203125 17.02734375 C-1.99228515 16.9657542 -1.99228515 16.9657542 -7 17.6875 C-9.125 18.0625 -9.125 18.0625 -12.125 16.0625 C-13.16074044 11.39700252 -12.4824133 7.72967149 -10.25 3.5625 C-6.93919878 -0.33256025 -4.96020573 -0.05276815 0 0 Z M-4.6875 3.5625 C-6.69915567 7.0610316 -6.79079094 10.05199133 -7.125 14.0625 C-5.20190578 14.02294102 -5.20190578 14.02294102 -3.125 13.0625 C-1.02265341 9.87273276 -0.02007155 8.02784169 -0.4375 4.1875 C-0.664375 3.48625 -0.89125 2.785 -1.125 2.0625 C-3.2455318 1.83165606 -3.2455318 1.83165606 -4.6875 3.5625 Z " fill="#2D4798" transform="translate(643.125,163.9375)"/>
<path d="M0 0 C1.09570312 0.00902344 2.19140625 0.01804688 3.3203125 0.02734375 C4.16335938 0.03894531 5.00640625 0.05054688 5.875 0.0625 C5.43920325 4.23502206 5.00084249 8.37036632 4.25 12.5 C3.62800471 15.04518672 3.62800471 15.04518672 4.875 17.0625 C4.28332031 17.05089844 3.69164062 17.03929687 3.08203125 17.02734375 C-1.99228515 16.9657542 -1.99228515 16.9657542 -7 17.6875 C-9.125 18.0625 -9.125 18.0625 -12.125 16.0625 C-13.16074044 11.39700252 -12.4824133 7.72967149 -10.25 3.5625 C-6.93919878 -0.33256025 -4.96020573 -0.05276815 0 0 Z M-4.6875 3.5625 C-6.69915567 7.0610316 -6.79079094 10.05199133 -7.125 14.0625 C-5.20190578 14.02294102 -5.20190578 14.02294102 -3.125 13.0625 C-1.02265341 9.87273276 -0.02007155 8.02784169 -0.4375 4.1875 C-0.664375 3.48625 -0.89125 2.785 -1.125 2.0625 C-3.2455318 1.83165606 -3.2455318 1.83165606 -4.6875 3.5625 Z " fill="#2D4798" transform="translate(500.125,163.9375)"/>
<path d="M0 0 C1.65 0 3.3 0 5 0 C5 6.6 5 13.2 5 20 C3.081875 20.0825 1.16375 20.165 -0.8125 20.25 C-2.43091797 20.31960937 -2.43091797 20.31960937 -4.08203125 20.390625 C-7 20 -7 20 -8.859375 18.23828125 C-10.7495566 14.52912351 -10.46034111 12.14306999 -10 8 C-8.375 6 -8.375 6 -6 5 C-2.75 4.8125 -2.75 4.8125 0 5 C0 3.35 0 1.7 0 0 Z M-4 9 C-4.66 10.32 -5.32 11.64 -6 13 C-5.01 14.485 -5.01 14.485 -4 16 C-2.68 15.67 -1.36 15.34 0 15 C0 13.35 0 11.7 0 10 C-1.32 9.67 -2.64 9.34 -4 9 Z " fill="#243D8E" transform="translate(172,160)"/>
<path d="M0 0 C1.17755859 -0.00773438 1.17755859 -0.00773438 2.37890625 -0.015625 C4.4375 0.25 4.4375 0.25 6.4375 2.25 C7.07521181 6.4655235 6.84647037 10.23833645 5.25 14.1875 C3.03403179 16.709119 1.71562043 17.50497263 -1.5625 18.25 C-7.99886364 17.81363636 -7.99886364 17.81363636 -10.5625 15.25 C-10.99993808 9.91325538 -11.01068791 6.59216255 -7.5625 2.25 C-4.42838698 0.16059132 -3.58799528 -0.02364412 0 0 Z M-1.5625 2.25 C-4.03306734 5.90214303 -5.17097341 8.84532582 -5.5625 13.25 C-5.2325 13.91 -4.9025 14.57 -4.5625 15.25 C-2.59493548 15.21877057 -2.59493548 15.21877057 -0.5625 14.25 C1.13476294 10.51602153 1.67740744 7.32842654 1.4375 3.25 C0.4475 2.92 -0.5425 2.59 -1.5625 2.25 Z " fill="#2D4798" transform="translate(404.5625,163.75)"/>
<path d="M0 0 C0.7940625 -0.01417969 1.588125 -0.02835938 2.40625 -0.04296875 C4.5 0.1875 4.5 0.1875 6.5 2.1875 C6.5 4.625 6.5 4.625 5.5 7.1875 C1.78337238 9.63709548 -1.06366125 10.57894165 -5.5 10.1875 C-5.17 11.1775 -4.84 12.1675 -4.5 13.1875 C-0.045 12.6925 -0.045 12.6925 4.5 12.1875 C2.5 16.1875 2.5 16.1875 0.8125 17.5 C-2.53482097 18.49514948 -5.128843 17.936646 -8.5 17.1875 C-10.5 15.1875 -10.5 15.1875 -10.875 11.4375 C-10.77986924 7.08526758 -9.29141765 4.55362129 -6.5 1.1875 C-4.14653604 0.01076802 -2.6193967 0.02126134 0 0 Z M-1.5 2.1875 C-2.985 4.6625 -2.985 4.6625 -4.5 7.1875 C-2.85 6.8575 -1.2 6.5275 0.5 6.1875 C0.83 5.1975 1.16 4.2075 1.5 3.1875 C0.51 2.8575 -0.48 2.5275 -1.5 2.1875 Z " fill="#2D4798" transform="translate(1177.5,163.8125)"/>
<path d="M0 0 C0.7940625 -0.01417969 1.588125 -0.02835938 2.40625 -0.04296875 C4.5 0.1875 4.5 0.1875 6.5 2.1875 C6.5 4.625 6.5 4.625 5.5 7.1875 C1.78337238 9.63709548 -1.06366125 10.57894165 -5.5 10.1875 C-5.17 11.1775 -4.84 12.1675 -4.5 13.1875 C-0.045 12.6925 -0.045 12.6925 4.5 12.1875 C2.5 16.1875 2.5 16.1875 0.8125 17.5 C-2.53482097 18.49514948 -5.128843 17.936646 -8.5 17.1875 C-10.5 15.1875 -10.5 15.1875 -10.875 11.4375 C-10.77986924 7.08526758 -9.29141765 4.55362129 -6.5 1.1875 C-4.14653604 0.01076802 -2.6193967 0.02126134 0 0 Z M-1.5 2.1875 C-2.985 4.6625 -2.985 4.6625 -4.5 7.1875 C-2.85 6.8575 -1.2 6.5275 0.5 6.1875 C0.83 5.1975 1.16 4.2075 1.5 3.1875 C0.51 2.8575 -0.48 2.5275 -1.5 2.1875 Z " fill="#2D4798" transform="translate(1070.5,163.8125)"/>
<path d="M0 0 C0.7940625 -0.01417969 1.588125 -0.02835938 2.40625 -0.04296875 C4.5 0.1875 4.5 0.1875 6.5 2.1875 C6.5 4.625 6.5 4.625 5.5 7.1875 C1.78337238 9.63709548 -1.06366125 10.57894165 -5.5 10.1875 C-5.17 11.1775 -4.84 12.1675 -4.5 13.1875 C-0.045 12.6925 -0.045 12.6925 4.5 12.1875 C2.5 16.1875 2.5 16.1875 0.8125 17.5 C-2.53482097 18.49514948 -5.128843 17.936646 -8.5 17.1875 C-10.5 15.1875 -10.5 15.1875 -10.875 11.4375 C-10.77986924 7.08526758 -9.29141765 4.55362129 -6.5 1.1875 C-4.14653604 0.01076802 -2.6193967 0.02126134 0 0 Z M-1.5 2.1875 C-2.985 4.6625 -2.985 4.6625 -4.5 7.1875 C-2.85 6.8575 -1.2 6.5275 0.5 6.1875 C0.83 5.1975 1.16 4.2075 1.5 3.1875 C0.51 2.8575 -0.48 2.5275 -1.5 2.1875 Z " fill="#2D4798" transform="translate(1008.5,163.8125)"/>
<path d="M0 0 C0.7940625 -0.01417969 1.588125 -0.02835938 2.40625 -0.04296875 C4.5 0.1875 4.5 0.1875 6.5 2.1875 C6.5 4.625 6.5 4.625 5.5 7.1875 C1.78337238 9.63709548 -1.06366125 10.57894165 -5.5 10.1875 C-5.17 11.1775 -4.84 12.1675 -4.5 13.1875 C-0.045 12.6925 -0.045 12.6925 4.5 12.1875 C2.5 16.1875 2.5 16.1875 0.8125 17.5 C-2.53482097 18.49514948 -5.128843 17.936646 -8.5 17.1875 C-10.5 15.1875 -10.5 15.1875 -10.875 11.4375 C-10.77986924 7.08526758 -9.29141765 4.55362129 -6.5 1.1875 C-4.14653604 0.01076802 -2.6193967 0.02126134 0 0 Z M-1.5 2.1875 C-2.985 4.6625 -2.985 4.6625 -4.5 7.1875 C-2.85 6.8575 -1.2 6.5275 0.5 6.1875 C0.83 5.1975 1.16 4.2075 1.5 3.1875 C0.51 2.8575 -0.48 2.5275 -1.5 2.1875 Z " fill="#2D4798" transform="translate(960.5,163.8125)"/>
<path d="M0 0 C0.7940625 -0.01417969 1.588125 -0.02835938 2.40625 -0.04296875 C4.5 0.1875 4.5 0.1875 6.5 2.1875 C6.5 4.625 6.5 4.625 5.5 7.1875 C1.78337238 9.63709548 -1.06366125 10.57894165 -5.5 10.1875 C-5.17 11.1775 -4.84 12.1675 -4.5 13.1875 C-0.045 12.6925 -0.045 12.6925 4.5 12.1875 C2.5 16.1875 2.5 16.1875 0.8125 17.5 C-2.53482097 18.49514948 -5.128843 17.936646 -8.5 17.1875 C-10.5 15.1875 -10.5 15.1875 -10.875 11.4375 C-10.77986924 7.08526758 -9.29141765 4.55362129 -6.5 1.1875 C-4.14653604 0.01076802 -2.6193967 0.02126134 0 0 Z M-1.5 2.1875 C-2.985 4.6625 -2.985 4.6625 -4.5 7.1875 C-2.85 6.8575 -1.2 6.5275 0.5 6.1875 C0.83 5.1975 1.16 4.2075 1.5 3.1875 C0.51 2.8575 -0.48 2.5275 -1.5 2.1875 Z " fill="#2D4798" transform="translate(785.5,163.8125)"/>
<path d="M0 0 C0.7940625 -0.01417969 1.588125 -0.02835938 2.40625 -0.04296875 C4.5 0.1875 4.5 0.1875 6.5 2.1875 C6.5 4.625 6.5 4.625 5.5 7.1875 C1.78337238 9.63709548 -1.06366125 10.57894165 -5.5 10.1875 C-5.17 11.1775 -4.84 12.1675 -4.5 13.1875 C-0.045 12.6925 -0.045 12.6925 4.5 12.1875 C2.5 16.1875 2.5 16.1875 0.8125 17.5 C-2.53482097 18.49514948 -5.128843 17.936646 -8.5 17.1875 C-10.5 15.1875 -10.5 15.1875 -10.875 11.4375 C-10.77986924 7.08526758 -9.29141765 4.55362129 -6.5 1.1875 C-4.14653604 0.01076802 -2.6193967 0.02126134 0 0 Z M-1.5 2.1875 C-2.985 4.6625 -2.985 4.6625 -4.5 7.1875 C-2.85 6.8575 -1.2 6.5275 0.5 6.1875 C0.83 5.1975 1.16 4.2075 1.5 3.1875 C0.51 2.8575 -0.48 2.5275 -1.5 2.1875 Z " fill="#2D4798" transform="translate(746.5,163.8125)"/>
<path d="M0 0 C0.7940625 -0.01417969 1.588125 -0.02835938 2.40625 -0.04296875 C4.5 0.1875 4.5 0.1875 6.5 2.1875 C6.5 4.625 6.5 4.625 5.5 7.1875 C1.78337238 9.63709548 -1.06366125 10.57894165 -5.5 10.1875 C-5.17 11.1775 -4.84 12.1675 -4.5 13.1875 C-0.045 12.6925 -0.045 12.6925 4.5 12.1875 C2.5 16.1875 2.5 16.1875 0.8125 17.5 C-2.53482097 18.49514948 -5.128843 17.936646 -8.5 17.1875 C-10.5 15.1875 -10.5 15.1875 -10.875 11.4375 C-10.77986924 7.08526758 -9.29141765 4.55362129 -6.5 1.1875 C-4.14653604 0.01076802 -2.6193967 0.02126134 0 0 Z M-1.5 2.1875 C-2.985 4.6625 -2.985 4.6625 -4.5 7.1875 C-2.85 6.8575 -1.2 6.5275 0.5 6.1875 C0.83 5.1975 1.16 4.2075 1.5 3.1875 C0.51 2.8575 -0.48 2.5275 -1.5 2.1875 Z " fill="#2D4798" transform="translate(544.5,163.8125)"/>
<path d="M0 0 C0.7940625 -0.01417969 1.588125 -0.02835938 2.40625 -0.04296875 C4.5 0.1875 4.5 0.1875 6.5 2.1875 C6.5 4.625 6.5 4.625 5.5 7.1875 C1.78337238 9.63709548 -1.06366125 10.57894165 -5.5 10.1875 C-5.17 11.1775 -4.84 12.1675 -4.5 13.1875 C-0.045 12.6925 -0.045 12.6925 4.5 12.1875 C2.5 16.1875 2.5 16.1875 0.8125 17.5 C-2.53482097 18.49514948 -5.128843 17.936646 -8.5 17.1875 C-10.5 15.1875 -10.5 15.1875 -10.875 11.4375 C-10.77986924 7.08526758 -9.29141765 4.55362129 -6.5 1.1875 C-4.14653604 0.01076802 -2.6193967 0.02126134 0 0 Z M-1.5 2.1875 C-2.985 4.6625 -2.985 4.6625 -4.5 7.1875 C-2.85 6.8575 -1.2 6.5275 0.5 6.1875 C0.83 5.1975 1.16 4.2075 1.5 3.1875 C0.51 2.8575 -0.48 2.5275 -1.5 2.1875 Z " fill="#2D4798" transform="translate(340.5,163.8125)"/>
<path d="M0 0 C0.7940625 -0.01417969 1.588125 -0.02835938 2.40625 -0.04296875 C4.5 0.1875 4.5 0.1875 6.5 2.1875 C6.5 4.625 6.5 4.625 5.5 7.1875 C1.78337238 9.63709548 -1.06366125 10.57894165 -5.5 10.1875 C-5.17 11.1775 -4.84 12.1675 -4.5 13.1875 C-0.045 12.6925 -0.045 12.6925 4.5 12.1875 C2.5 16.1875 2.5 16.1875 0.8125 17.5 C-2.53482097 18.49514948 -5.128843 17.936646 -8.5 17.1875 C-10.5 15.1875 -10.5 15.1875 -10.875 11.4375 C-10.77986924 7.08526758 -9.29141765 4.55362129 -6.5 1.1875 C-4.14653604 0.01076802 -2.6193967 0.02126134 0 0 Z M-1.5 2.1875 C-2.985 4.6625 -2.985 4.6625 -4.5 7.1875 C-2.85 6.8575 -1.2 6.5275 0.5 6.1875 C0.83 5.1975 1.16 4.2075 1.5 3.1875 C0.51 2.8575 -0.48 2.5275 -1.5 2.1875 Z " fill="#2D4798" transform="translate(280.5,163.8125)"/>
<path d="M0 0 C-1.18965087 7.36571071 -2.48077909 14.69481007 -4 22 C-2.68 22 -1.36 22 0 22 C0 22.66 0 23.32 0 24 C-4.95 24 -9.9 24 -15 24 C-15 23.34 -15 22.68 -15 22 C-13.68 21.67 -12.36 21.34 -11 21 C-9.68 16.05 -8.36 11.1 -7 6 C-8.65 6.66 -10.3 7.32 -12 8 C-12 6.68 -12 5.36 -12 4 C-10.75539217 3.32332002 -9.50403104 2.65905281 -8.25 2 C-7.55390625 1.62875 -6.8578125 1.2575 -6.140625 0.875 C-4 0 -4 0 0 0 Z " fill="#2D4798" transform="translate(1215,157)"/>
<path d="M0 0 C3.4375 0.5625 3.4375 0.5625 5.875 2.25 C7.69703249 4.94660809 7.79180394 6.37376451 7.4375 9.5625 C5.4575 9.8925 3.4775 10.2225 1.4375 10.5625 C3.0875 10.8925 4.7375 11.2225 6.4375 11.5625 C5.7775 12.8825 5.1175 14.2025 4.4375 15.5625 C1.38453274 15.85605454 -1.51753931 15.9817717 -4.5625 15.5625 C-7.36560861 13.16960241 -8.3214505 11.63383111 -9.125 8.0625 C-7.9781095 2.96520888 -5.01326472 0.79156811 0 0 Z " fill="#243D8E" transform="translate(152.5625,164.4375)"/>
<path d="M0 0 C3.3125 -0.25 3.3125 -0.25 7 0 C8.9375 2 8.9375 2 10 4 C10 2.68 10 1.36 10 0 C12.31 0 14.62 0 17 0 C15.30975143 3.77055449 15.30975143 3.77055449 13.3125 5.25 C11.6162782 7.51162907 11.9643105 8.43583577 12.3125 11.1875 C12.6528125 13.0746875 12.6528125 13.0746875 13 15 C13.66 15 14.32 15 15 15 C15 15.66 15 16.32 15 17 C11.6875 17.25 11.6875 17.25 8 17 C6.0625 15 6.0625 15 5 13 C5 14.32 5 15.64 5 17 C2.69 17 0.38 17 -2 17 C-0.83584751 14.38065691 0.24877721 12.73740184 2.25 10.625 C2.8275 9.75875 3.405 8.8925 4 8 C3.37963682 4.71895528 3.37963682 4.71895528 2 2 C1.34 2 0.68 2 0 2 C0 1.34 0 0.68 0 0 Z " fill="#2D4798" transform="translate(912,164)"/>
<path d="M0 0 C0.99 0.33 1.98 0.66 3 1 C-8.01162712 16.18845119 -28.8399278 24.16200704 -46.46875 28.625 C-49.77170576 29.11432678 -52.97526292 29.09368913 -56.3125 29.0625 C-57.56675781 29.05347656 -58.82101563 29.04445312 -60.11328125 29.03515625 C-61.06589844 29.02355469 -62.01851563 29.01195312 -63 29 C-63 28.67 -63 28.34 -63 28 C-61.76507813 27.78085938 -60.53015625 27.56171875 -59.2578125 27.3359375 C-36.88809114 23.21209705 -16.04281145 17.07783155 0 0 Z " fill="#BFC7DF" transform="translate(182,118)"/>
<path d="M0 0 C0.99773438 0.02320313 1.99546875 0.04640625 3.0234375 0.0703125 C4.52777344 0.09738281 4.52777344 0.09738281 6.0625 0.125 C6.83335937 0.14820313 7.60421875 0.17140625 8.3984375 0.1953125 C8.0684375 1.8453125 7.7384375 3.4953125 7.3984375 5.1953125 C6.0784375 4.8653125 4.7584375 4.5353125 3.3984375 4.1953125 C3.3984375 3.5353125 3.3984375 2.8753125 3.3984375 2.1953125 C2.4084375 2.6903125 2.4084375 2.6903125 1.3984375 3.1953125 C2.15260032 6.29469349 2.15260032 6.29469349 4.5234375 8.0703125 C6.3984375 10.1953125 6.3984375 10.1953125 6.4609375 12.7578125 C5.3984375 15.1953125 5.3984375 15.1953125 3.3359375 17.0703125 C-0.73236549 18.62838598 -3.34527717 17.98885722 -7.6015625 17.1953125 C-7.6015625 15.5453125 -7.6015625 13.8953125 -7.6015625 12.1953125 C-6.2815625 12.1953125 -4.9615625 12.1953125 -3.6015625 12.1953125 C-3.6015625 13.1853125 -3.6015625 14.1753125 -3.6015625 15.1953125 C-2.2815625 15.1953125 -0.9615625 15.1953125 0.3984375 15.1953125 C0.3984375 13.8753125 0.3984375 12.5553125 0.3984375 11.1953125 C-0.5296875 10.7621875 -0.5296875 10.7621875 -1.4765625 10.3203125 C-3.6015625 9.1953125 -3.6015625 9.1953125 -5.6015625 7.1953125 C-5.18473173 3.0270048 -4.61912383 0.34678107 0 0 Z " fill="#2D4798" transform="translate(762.6015625,163.8046875)"/>
<path d="M0 0 C8.3984375 -0.1953125 8.3984375 -0.1953125 11 0 C13 2 13 2 13.1953125 5.0390625 C13.17210938 6.22242188 13.14890625 7.40578125 13.125 8.625 C13.10695313 9.81351563 13.08890625 11.00203125 13.0703125 12.2265625 C13.04710938 13.14179688 13.02390625 14.05703125 13 15 C11.35 15 9.7 15 8 15 C8 11.37 8 7.74 8 4 C7.01 4.495 7.01 4.495 6 5 C5.53248212 7.35599235 5.53248212 7.35599235 5.375 10.0625 C5.30023438 10.98160156 5.22546875 11.90070313 5.1484375 12.84765625 C5.09945312 13.55792969 5.05046875 14.26820313 5 15 C3.35 15 1.7 15 0 15 C0 10.05 0 5.1 0 0 Z " fill="#243D8E" transform="translate(95,165)"/>
<path d="M0 0 C1.65 0 3.3 0 5 0 C4.67 1.32 4.34 2.64 4 4 C5.32 4 6.64 4 8 4 C8 4.99 8 5.98 8 7 C6.35 7 4.7 7 3 7 C2.855625 8.258125 2.71125 9.51625 2.5625 10.8125 C2.26251314 13.42667123 1.84186703 15.47439892 1 18 C2.65 17.34 4.3 16.68 6 16 C6 17.32 6 18.64 6 20 C2.38901539 22.3610284 0.11618798 21.80632176 -4 21 C-4.0809313 18.39521117 -4.14045434 15.79293347 -4.1875 13.1875 C-4.22520508 12.08051758 -4.22520508 12.08051758 -4.26367188 10.95117188 C-4.33847525 5.44065646 -4.33847525 5.44065646 -2.55078125 3.11328125 C-2.03902344 2.74589844 -1.52726562 2.37851563 -1 2 C-0.67 1.34 -0.34 0.68 0 0 Z " fill="#2D4798" transform="translate(319,160)"/>
<path d="M0 0 C1.65 0 3.3 0 5 0 C5.33 3.3 5.66 6.6 6 10 C6.66 10 7.32 10 8 10 C8.33 6.7 8.66 3.4 9 0 C10.65 0 12.3 0 14 0 C14.08142927 1.7492214 14.13938541 3.49954542 14.1875 5.25 C14.22230469 6.22453125 14.25710937 7.1990625 14.29296875 8.203125 C13.95369567 11.44205198 13.33654164 12.7527195 11 15 C9.0625 15.53125 9.0625 15.53125 7 15.5 C6.319375 15.5103125 5.63875 15.520625 4.9375 15.53125 C3 15 3 15 1.26171875 13.328125 C-0.30609455 10.43519395 -0.30428137 8.51987826 -0.1875 5.25 C-0.16042969 4.26515625 -0.13335937 3.2803125 -0.10546875 2.265625 C-0.07066406 1.51796875 -0.03585938 0.7703125 0 0 Z " fill="#243D8E" transform="translate(179,165)"/>
<path d="M0 0 C-0.39784288 5.01491414 -0.89310668 9.86404473 -2.125 14.75 C-3.01709798 18.44302326 -2.95665796 21.26903394 -2 25 C-4.97 25 -7.94 25 -11 25 C-10.69964844 23.68644531 -10.39929688 22.37289062 -10.08984375 21.01953125 C-9.70520586 19.28397006 -9.32112019 17.54828642 -8.9375 15.8125 C-8.73833984 14.94818359 -8.53917969 14.08386719 -8.33398438 13.19335938 C-6.97710095 7.1008463 -6.97710095 7.1008463 -8 1 C-5.07175348 0.02391783 -3.04386724 -0.08226668 0 0 Z " fill="#2D4798" transform="translate(994,156)"/>
<path d="M0 0 C-0.39784288 5.01491414 -0.89310668 9.86404473 -2.125 14.75 C-3.01709798 18.44302326 -2.95665796 21.26903394 -2 25 C-4.97 25 -7.94 25 -11 25 C-10.69964844 23.68644531 -10.39929688 22.37289062 -10.08984375 21.01953125 C-9.70520586 19.28397006 -9.32112019 17.54828642 -8.9375 15.8125 C-8.73833984 14.94818359 -8.53917969 14.08386719 -8.33398438 13.19335938 C-6.97710095 7.1008463 -6.97710095 7.1008463 -8 1 C-5.07175348 0.02391783 -3.04386724 -0.08226668 0 0 Z " fill="#2D4798" transform="translate(981,156)"/>
<path d="M0 0 C0.90105469 0.01804688 1.80210938 0.03609375 2.73046875 0.0546875 C3.41753906 0.07789063 4.10460938 0.10109375 4.8125 0.125 C4.4825 1.775 4.1525 3.425 3.8125 5.125 C2.4925 5.125 1.1725 5.125 -0.1875 5.125 C-0.1875 4.135 -0.1875 3.145 -0.1875 2.125 C-3.31020126 4.64330747 -4.13273098 5.8511549 -4.9375 9.875 C-5.02 10.9475 -5.1025 12.02 -5.1875 13.125 C-1.7225 12.63 -1.7225 12.63 1.8125 12.125 C1.8125 13.115 1.8125 14.105 1.8125 15.125 C-1.09273173 17.51754378 -2.58550237 18.16041163 -6.375 17.9375 C-9.1875 17.125 -9.1875 17.125 -11.1875 15.125 C-11.62493808 9.78825538 -11.63568791 6.46716255 -8.1875 2.125 C-4.87379 -0.08414 -3.8428979 -0.09981553 0 0 Z " fill="#2D4798" transform="translate(1160.1875,163.875)"/>
<path d="M0 0 C0.90105469 0.01804688 1.80210938 0.03609375 2.73046875 0.0546875 C3.41753906 0.07789063 4.10460938 0.10109375 4.8125 0.125 C4.4825 1.775 4.1525 3.425 3.8125 5.125 C2.4925 5.125 1.1725 5.125 -0.1875 5.125 C-0.1875 4.135 -0.1875 3.145 -0.1875 2.125 C-3.31020126 4.64330747 -4.13273098 5.8511549 -4.9375 9.875 C-5.02 10.9475 -5.1025 12.02 -5.1875 13.125 C-1.7225 12.63 -1.7225 12.63 1.8125 12.125 C1.8125 13.115 1.8125 14.105 1.8125 15.125 C-1.09273173 17.51754378 -2.58550237 18.16041163 -6.375 17.9375 C-9.1875 17.125 -9.1875 17.125 -11.1875 15.125 C-11.62493808 9.78825538 -11.63568791 6.46716255 -8.1875 2.125 C-4.87379 -0.08414 -3.8428979 -0.09981553 0 0 Z " fill="#2D4798" transform="translate(1052.1875,163.875)"/>
<path d="M0 0 C0.90105469 0.01804688 1.80210937 0.03609375 2.73046875 0.0546875 C3.41753906 0.07789063 4.10460937 0.10109375 4.8125 0.125 C4.4825 1.775 4.1525 3.425 3.8125 5.125 C2.4925 5.125 1.1725 5.125 -0.1875 5.125 C-0.1875 4.135 -0.1875 3.145 -0.1875 2.125 C-3.31020126 4.64330747 -4.13273098 5.8511549 -4.9375 9.875 C-5.02 10.9475 -5.1025 12.02 -5.1875 13.125 C-1.7225 12.63 -1.7225 12.63 1.8125 12.125 C1.8125 13.115 1.8125 14.105 1.8125 15.125 C-1.09273173 17.51754378 -2.58550237 18.16041163 -6.375 17.9375 C-9.1875 17.125 -9.1875 17.125 -11.1875 15.125 C-11.62493808 9.78825538 -11.63568791 6.46716255 -8.1875 2.125 C-4.87379 -0.08414 -3.8428979 -0.09981553 0 0 Z " fill="#2D4798" transform="translate(943.1875,163.875)"/>
<path d="M0 0 C0.90105469 0.01804688 1.80210937 0.03609375 2.73046875 0.0546875 C3.41753906 0.07789063 4.10460937 0.10109375 4.8125 0.125 C4.4825 1.775 4.1525 3.425 3.8125 5.125 C2.4925 5.125 1.1725 5.125 -0.1875 5.125 C-0.1875 4.135 -0.1875 3.145 -0.1875 2.125 C-3.31020126 4.64330747 -4.13273098 5.8511549 -4.9375 9.875 C-5.02 10.9475 -5.1025 12.02 -5.1875 13.125 C-1.7225 12.63 -1.7225 12.63 1.8125 12.125 C1.8125 13.115 1.8125 14.105 1.8125 15.125 C-1.09273173 17.51754378 -2.58550237 18.16041163 -6.375 17.9375 C-9.1875 17.125 -9.1875 17.125 -11.1875 15.125 C-11.62493808 9.78825538 -11.63568791 6.46716255 -8.1875 2.125 C-4.87379 -0.08414 -3.8428979 -0.09981553 0 0 Z " fill="#2D4798" transform="translate(848.1875,163.875)"/>
<path d="M0 0 C0.90105469 0.01804688 1.80210937 0.03609375 2.73046875 0.0546875 C3.41753906 0.07789063 4.10460937 0.10109375 4.8125 0.125 C4.4825 1.775 4.1525 3.425 3.8125 5.125 C2.4925 5.125 1.1725 5.125 -0.1875 5.125 C-0.1875 4.135 -0.1875 3.145 -0.1875 2.125 C-3.31020126 4.64330747 -4.13273098 5.8511549 -4.9375 9.875 C-5.02 10.9475 -5.1025 12.02 -5.1875 13.125 C-1.7225 12.63 -1.7225 12.63 1.8125 12.125 C1.8125 13.115 1.8125 14.105 1.8125 15.125 C-1.09273173 17.51754378 -2.58550237 18.16041163 -6.375 17.9375 C-9.1875 17.125 -9.1875 17.125 -11.1875 15.125 C-11.62493808 9.78825538 -11.63568791 6.46716255 -8.1875 2.125 C-4.87379 -0.08414 -3.8428979 -0.09981553 0 0 Z " fill="#2D4798" transform="translate(613.1875,163.875)"/>
<path d="M0 0 C0.90105469 0.01804688 1.80210937 0.03609375 2.73046875 0.0546875 C3.41753906 0.07789063 4.10460937 0.10109375 4.8125 0.125 C4.4825 1.775 4.1525 3.425 3.8125 5.125 C2.4925 5.125 1.1725 5.125 -0.1875 5.125 C-0.1875 4.135 -0.1875 3.145 -0.1875 2.125 C-3.31020126 4.64330747 -4.13273098 5.8511549 -4.9375 9.875 C-5.02 10.9475 -5.1025 12.02 -5.1875 13.125 C-1.7225 12.63 -1.7225 12.63 1.8125 12.125 C1.8125 13.115 1.8125 14.105 1.8125 15.125 C-1.09273173 17.51754378 -2.58550237 18.16041163 -6.375 17.9375 C-9.1875 17.125 -9.1875 17.125 -11.1875 15.125 C-11.62493808 9.78825538 -11.63568791 6.46716255 -8.1875 2.125 C-4.87379 -0.08414 -3.8428979 -0.09981553 0 0 Z " fill="#2D4798" transform="translate(481.1875,163.875)"/>
<path d="M0 0 C4.95 0 9.9 0 15 0 C15 1.65 15 3.3 15 5 C12.03 4.505 12.03 4.505 9 4 C7.09234178 6.86148733 6.5716491 8.35300379 5.9375 11.625 C5.10060362 15.89939638 5.10060362 15.89939638 4 17 C2.33382885 17.04063832 0.66611905 17.042721 -1 17 C-0.5547115 11.72684667 0.08373163 6.98229776 2 2 C1.34 2 0.68 2 0 2 C0 1.34 0 0.68 0 0 Z " fill="#2D4798" transform="translate(819,164)"/>
<path d="M0 0 C4.95 0 9.9 0 15 0 C15 1.65 15 3.3 15 5 C12.03 4.505 12.03 4.505 9 4 C7.09234178 6.86148733 6.5716491 8.35300379 5.9375 11.625 C5.10060362 15.89939638 5.10060362 15.89939638 4 17 C2.33382885 17.04063832 0.66611905 17.042721 -1 17 C-0.5547115 11.72684667 0.08373163 6.98229776 2 2 C1.34 2 0.68 2 0 2 C0 1.34 0 0.68 0 0 Z " fill="#2D4798" transform="translate(417,164)"/>
<path d="M0 0 C4.95 0 9.9 0 15 0 C15 1.65 15 3.3 15 5 C12.03 4.505 12.03 4.505 9 4 C7.09234178 6.86148733 6.5716491 8.35300379 5.9375 11.625 C5.10060362 15.89939638 5.10060362 15.89939638 4 17 C2.33382885 17.04063832 0.66611905 17.042721 -1 17 C-0.5547115 11.72684667 0.08373163 6.98229776 2 2 C1.34 2 0.68 2 0 2 C0 1.34 0 0.68 0 0 Z " fill="#2D4798" transform="translate(351,164)"/>
<path d="M0 0 C0.94875 0.04125 1.8975 0.0825 2.875 0.125 C3.535 1.445 4.195 2.765 4.875 4.125 C4.215 4.785 3.555 5.445 2.875 6.125 C3.535 6.785 4.195 7.445 4.875 8.125 C5.125 10.625 5.125 10.625 4.875 13.125 C2.875 15.125 2.875 15.125 -0.625 15.3125 C-4.125 15.125 -4.125 15.125 -6.125 14.125 C-6.125 13.135 -6.125 12.145 -6.125 11.125 C-4.475 10.795 -2.825 10.465 -1.125 10.125 C-2.115 9.5371875 -2.115 9.5371875 -3.125 8.9375 C-5.125 7.125 -5.125 7.125 -5.5 4.5625 C-4.90648953 0.70468194 -3.83959735 0.15358389 0 0 Z " fill="#243D8E" transform="translate(122.125,164.875)"/>
<path d="M0 0 C2.98577503 1.34294685 5.03689051 2.8503686 7.375 5.125 C18.1055888 14.68099745 31.55860781 19.55954008 45 24 C36.38081036 26.87306321 26.62381346 20.94105542 19.00390625 17.15234375 C14.18176131 14.64097335 10.04567112 11.62336724 6 8 C4.64621734 6.853713 3.29207355 5.70785229 1.9375 4.5625 C0.968125 3.716875 -0.00125 2.87125 -1 2 C-0.67 1.34 -0.34 0.68 0 0 Z " fill="#C7CDE3" transform="translate(33,119)"/>
<path d="M0 0 C1.65 0 3.3 0 5 0 C5 1.65 5 3.3 5 5 C5.66 5 6.32 5 7 5 C7 6.32 7 7.64 7 9 C6.34 9 5.68 9 5 9 C5 12.63 5 16.26 5 20 C3.35 20 1.7 20 0 20 C-0.0270043 18.54176788 -0.04639787 17.08339325 -0.0625 15.625 C-0.07410156 14.81289062 -0.08570313 14.00078125 -0.09765625 13.1640625 C0 11 0 11 1 9 C0.34 9 -0.32 9 -1 9 C-0.67 6.03 -0.34 3.06 0 0 Z " fill="#243D8E" transform="translate(129,160)"/>
<path d="M0 0 C2.64 0 5.28 0 8 0 C7.84402344 1.05960938 7.68804688 2.11921875 7.52734375 3.2109375 C7.33040144 4.59891187 7.13380477 5.98693532 6.9375 7.375 C6.83373047 8.07367188 6.72996094 8.77234375 6.62304688 9.4921875 C5.94970152 13.35016833 5.94970152 13.35016833 7 17 C4.36 17 1.72 17 -1 17 C-0.5547115 11.72684667 0.08373163 6.98229776 2 2 C1.34 2 0.68 2 0 2 C0 1.34 0 0.68 0 0 Z " fill="#2D4798" transform="translate(1113,164)"/>
<path d="M0 0 C2.64 0 5.28 0 8 0 C7.84402344 1.05960938 7.68804688 2.11921875 7.52734375 3.2109375 C7.33040144 4.59891187 7.13380477 5.98693532 6.9375 7.375 C6.83373047 8.07367188 6.72996094 8.77234375 6.62304688 9.4921875 C5.94970152 13.35016833 5.94970152 13.35016833 7 17 C4.36 17 1.72 17 -1 17 C-0.5547115 11.72684667 0.08373163 6.98229776 2 2 C1.34 2 0.68 2 0 2 C0 1.34 0 0.68 0 0 Z " fill="#2D4798" transform="translate(589,164)"/>
<path d="M0 0 C0.99 0.33 1.98 0.66 3 1 C-3.41912476 9.85396518 -13.90647562 16.92508053 -24 21 C-24.99 20.67 -25.98 20.34 -27 20 C-23.95069735 17.58657088 -20.78452856 15.73719634 -17.375 13.875 C-10.76475536 10.07917854 -5.37200014 5.37200014 0 0 Z " fill="#CED4E7" transform="translate(182,118)"/>
<path d="M0 0 C1.65 0 3.3 0 5 0 C5 4.62 5 9.24 5 14 C3.35 14 1.7 14 0 14 C0 9.38 0 4.76 0 0 Z " fill="#243D8E" transform="translate(110,166)"/>
<path d="M0 0 C3.29714793 0.32971479 4.6226839 0.6226839 7 3 C6.67028521 6.29714793 6.3773161 7.6226839 4 10 C2.68 10 1.36 10 0 10 C-2.14915785 6.77626323 -2.38286803 5.73296326 -2 2 C-1.34 1.34 -0.68 0.68 0 0 Z " fill="#485BA1" transform="translate(90,62)"/>
<path d="M0 0 C0.97001953 0.00451172 1.94003906 0.00902344 2.93945312 0.01367188 C5.3138676 0.0253685 7.68815021 0.04175914 10.0625 0.0625 C10.0625 0.3925 10.0625 0.7225 10.0625 1.0625 C6.14910978 1.51718198 2.2347739 1.96246281 -1.68066406 2.39916992 C-3.66527593 2.62249912 -5.64905369 2.85320055 -7.6328125 3.08398438 C-9.50839844 3.2918457 -9.50839844 3.2918457 -11.421875 3.50390625 C-13.15002441 3.70028687 -13.15002441 3.70028687 -14.91308594 3.90063477 C-17.5904983 4.04392863 -19.42237082 3.90717321 -21.9375 3.0625 C-15.40520972 -0.85687417 -7.34296664 -0.06524851 0 0 Z " fill="#FAFBFC" transform="translate(103.9375,29.9375)"/>
<path d="M0 0 C0.99 0.33 1.98 0.66 3 1 C2.55269531 1.42410156 2.10539062 1.84820312 1.64453125 2.28515625 C-2.44951902 6.25699606 -5.813901 10.26912573 -9 15 C-9.66 14.34 -10.32 13.68 -11 13 C-9.92027262 11.5805831 -8.83604137 10.1645917 -7.75 8.75 C-6.84507813 7.56664062 -6.84507813 7.56664062 -5.921875 6.359375 C-4.06817005 4.08368843 -2.11101046 2.03628442 0 0 Z " fill="#F8F9FB" transform="translate(37,53)"/>
<path d="M0 0 C0.99 0.33 1.98 0.66 3 1 C-0.57364291 5.65656501 -4.04749618 8.82292208 -9 12 C-9.66 12 -10.32 12 -11 12 C-9.85996765 8.57990294 -8.77829802 7.71130558 -6.0625 5.4375 C-3.96656037 3.66869432 -1.94005112 1.94005112 0 0 Z " fill="#D4D8E9" transform="translate(182,118)"/>
<path d="M0 0 C-0.99 0.33 -1.98 0.66 -3 1 C-3 1.66 -3 2.32 -3 3 C-7.15626368 4.00926479 -11.04365094 4.10239579 -15.3125 4.0625 C-16.56675781 4.05347656 -17.82101563 4.04445312 -19.11328125 4.03515625 C-20.06589844 4.02355469 -21.01851563 4.01195312 -22 4 C-22 3.67 -22 3.34 -22 3 C-19.27172635 2.49465273 -16.54255306 1.99556155 -13.8125 1.5 C-13.04357422 1.35691406 -12.27464844 1.21382812 -11.48242188 1.06640625 C-7.60578227 0.36761285 -3.958529 -0.19039017 0 0 Z " fill="#D8DCEB" transform="translate(141,143)"/>
<path d="M0 0 C3.23861303 1.44424635 5.61969163 3.25772247 8.25 5.625 C8.95640625 6.25664063 9.6628125 6.88828125 10.390625 7.5390625 C10.92171875 8.02117187 11.4528125 8.50328125 12 9 C11.01 9.495 11.01 9.495 10 10 C5.1268348 7.6536612 2.13605376 5.51591742 -1 1 C-0.67 0.67 -0.34 0.34 0 0 Z " fill="#D8DBEB" transform="translate(33,119)"/>
<path d="M0 0 C0.88945312 0.25265625 1.77890625 0.5053125 2.6953125 0.765625 C3.77425781 1.25289062 3.77425781 1.25289062 4.875 1.75 C5.205 2.74 5.535 3.73 5.875 4.75 C4.10239369 4.29857225 2.3319632 3.83859477 0.5625 3.375 C-0.91669922 2.99214844 -0.91669922 2.99214844 -2.42578125 2.6015625 C-5.125 1.75 -5.125 1.75 -8.125 -0.25 C-4.64023541 -1.4115882 -3.45251629 -1.02669581 0 0 Z " fill="#E1E5F0" transform="translate(149.125,36.25)"/>
<path d="M0 0 C1.65 0 3.3 0 5 0 C5 1.32 5 2.64 5 4 C4.34 4 3.68 4 3 4 C3 4.66 3 5.32 3 6 C1.68 5.67 0.36 5.34 -1 5 C-0.67 3.35 -0.34 1.7 0 0 Z " fill="#2B4597" transform="translate(91,64)"/>
<path d="M0 0 C1.65 0 3.3 0 5 0 C5.5625 1.9375 5.5625 1.9375 6 4 C5 5 5 5 2.4375 5.0625 C1.2309375 5.0315625 1.2309375 5.0315625 0 5 C0 3.35 0 1.7 0 0 Z " fill="#243E8E" transform="translate(110,160)"/>
<path d="M0 0 C5.11365014 1.0681847 10.07227969 2.23107476 15 4 C11.70092122 5.09969293 10.29093739 4.90192008 6.9375 4.25 C5.62072266 4.01023438 5.62072266 4.01023438 4.27734375 3.765625 C2 3 2 3 0 0 Z " fill="#D9DDEC" transform="translate(63,139)"/>
<path d="M0 0 C1.65 0 3.3 0 5 0 C4.67 1.65 4.34 3.3 4 5 C2.35 5 0.7 5 -1 5 C-0.67 3.35 -0.34 1.7 0 0 Z " fill="#2D4798" transform="translate(1117,157)"/>
<path d="M0 0 C1.65 0 3.3 0 5 0 C4.67 1.65 4.34 3.3 4 5 C2.35 5 0.7 5 -1 5 C-0.67 3.35 -0.34 1.7 0 0 Z " fill="#2D4798" transform="translate(593,157)"/>
<path d="M0 0 C4.62 0 9.24 0 14 0 C14 0.99 14 1.98 14 3 C8.78020872 3.1799928 4.92737019 2.97094808 0 1 C0 0.67 0 0.34 0 0 Z " fill="#BFC6DF" transform="translate(89,146)"/>
<path d="M0 0 C1.66832577 2.50248865 2.62381674 4.41149187 3.625 7.1875 C3.88539062 7.90292969 4.14578125 8.61835937 4.4140625 9.35546875 C4.60742188 9.89816406 4.80078125 10.44085938 5 11 C4.01 11 3.02 11 2 11 C-1.07692308 5.70769231 -1.07692308 5.70769231 -0.6875 2.125 C-0.460625 1.42375 -0.23375 0.7225 0 0 Z " fill="#E2E5F0" transform="translate(22,98)"/>
<path d="M0 0 C1.98 0.495 1.98 0.495 4 1 C4 2.32 4 3.64 4 5 C2.35 4.67 0.7 4.34 -1 4 C-0.67 2.68 -0.34 1.36 0 0 Z " fill="#243D8E" transform="translate(138,175)"/>
<path d="M0 0 C1.98 0.495 1.98 0.495 4 1 C4 2.32 4 3.64 4 5 C2.35 5 0.7 5 -1 5 C-0.67 3.35 -0.34 1.7 0 0 Z " fill="#243E8E" transform="translate(88,175)"/>
<path d="M0 0 C0.99 0.33 1.98 0.66 3 1 C2.67 2.65 2.34 4.3 2 6 C1.67 6 1.34 6 1 6 C0.67 7.65 0.34 9.3 0 11 C-0.33 11 -0.66 11 -1 11 C-1.0270043 9.54176788 -1.04639787 8.08339325 -1.0625 6.625 C-1.07410156 5.81289062 -1.08570312 5.00078125 -1.09765625 4.1640625 C-1 2 -1 2 0 0 Z " fill="#213C91" transform="translate(79,61)"/>
<path d="M0 0 C0.99 0.33 1.98 0.66 3 1 C-2.75 6 -2.75 6 -5 6 C-3.86525052 2.59575156 -3.03188696 1.78346291 0 0 Z " fill="#DFE2EF" transform="translate(176,124)"/>
<path d="M0 0 C6.75 1.75 6.75 1.75 9 4 C8.01 4.33 7.02 4.66 6 5 C2.8125 3.125 2.8125 3.125 0 1 C0 0.67 0 0.34 0 0 Z " fill="#B9C1DC" transform="translate(41,128)"/>
</svg>
